<?xml version="1.0" standalone="no"?>
<!DOCTYPE svg PUBLIC "-//W3C//DTD SVG 20010904//EN"
 "http://www.w3.org/TR/2001/REC-SVG-20010904/DTD/svg10.dtd">
<svg version="1.0" xmlns="http://www.w3.org/2000/svg"
 width="2000.000000pt" height="2000.000000pt" viewBox="0 0 2000.000000 2000.000000"
 preserveAspectRatio="xMidYMid meet">
<metadata>
Created by potrace 1.16, written by Peter Selinger 2001-2019
</metadata>
<g transform="translate(0.000000,2000.000000) scale(0.100000,-0.100000)"
fill="#000000" stroke="none">
<path d="M0 10000 l0 -10000 10000 0 10000 0 0 10000 0 10000 -10000 0 -10000
0 0 -10000z m10376 3122 c6 -4 16 -29 22 -57 5 -27 18 -70 27 -95 15 -39 17
-71 11 -260 -4 -118 -14 -262 -23 -320 -8 -58 -18 -144 -20 -192 -4 -81 -15
-109 -29 -74 -7 19 -57 36 -103 36 -20 0 -45 7 -55 15 -27 20 -193 21 -238 1
-18 -8 -55 -18 -81 -21 -28 -4 -57 -15 -68 -26 -10 -10 -23 -19 -27 -19 -5 0
-14 111 -21 248 -29 573 -29 531 -6 648 17 86 25 109 40 115 26 10 556 11 571
1z m-784 -502 c4 -74 9 -233 12 -352 3 -129 9 -225 16 -237 6 -12 7 -21 1 -21
-5 0 -11 -10 -15 -23 -3 -12 -19 -38 -36 -57 -16 -18 -30 -42 -30 -52 0 -10
-7 -18 -15 -18 -8 0 -19 -18 -27 -42 -7 -24 -18 -48 -26 -53 -7 -6 -18 -42
-23 -80 -6 -39 -17 -93 -25 -121 -18 -65 -18 -94 2 -122 19 -28 23 -27 -140
-41 -71 -6 -135 -16 -142 -22 -7 -6 -61 -15 -120 -20 -59 -5 -120 -16 -136
-23 -15 -8 -58 -17 -95 -21 -76 -7 -133 -22 -133 -35 0 -4 -28 -11 -62 -15
-37 -4 -80 -17 -105 -31 -48 -28 -75 -30 -93 -8 -11 12 -10 39 8 147 11 73 24
158 27 189 3 31 14 74 25 95 10 21 21 58 25 82 4 24 16 58 26 75 10 17 19 40
19 52 0 11 11 35 24 53 13 18 27 48 30 67 4 19 11 34 17 34 5 0 15 12 21 28 7
15 23 41 35 58 13 17 23 36 23 42 0 6 6 15 13 19 7 4 20 20 29 34 28 45 177
196 197 202 22 5 24 -2 37 -103 3 -30 15 -77 25 -105 10 -27 21 -72 25 -100
16 -114 64 -194 100 -164 22 18 18 134 -6 187 -12 27 -22 77 -26 135 -4 51
-15 117 -25 147 -27 78 -25 108 7 121 15 5 40 21 56 34 16 14 35 25 43 25 7 0
18 7 25 15 7 8 30 20 51 26 21 7 46 20 55 31 10 10 24 18 33 18 9 0 34 9 55
19 20 11 62 27 92 37 30 9 57 21 60 26 3 5 18 8 32 6 l27 -3 7 -135z m1063
130 c3 -5 32 -17 63 -26 31 -9 64 -23 73 -31 9 -7 33 -17 53 -20 21 -3 41 -14
47 -24 5 -10 25 -21 44 -25 19 -3 40 -13 47 -21 7 -8 23 -19 37 -24 13 -6 47
-24 74 -42 l49 -32 -7 -65 c-4 -36 -13 -77 -21 -92 -7 -14 -18 -86 -24 -160
-6 -73 -15 -153 -19 -177 -11 -57 -6 -71 29 -71 36 0 36 1 55 91 9 41 22 88
29 104 8 17 20 68 26 115 7 48 21 101 33 123 19 34 37 48 37 29 0 -4 20 -28
44 -53 71 -74 166 -187 166 -197 0 -5 7 -15 15 -22 9 -7 23 -29 32 -49 9 -20
22 -39 29 -43 6 -4 15 -23 18 -41 4 -19 15 -42 26 -52 10 -9 22 -31 26 -49 3
-17 14 -44 24 -61 10 -16 21 -48 25 -70 4 -22 15 -54 26 -71 10 -17 19 -47 19
-66 0 -19 9 -70 20 -114 14 -53 21 -117 23 -194 l2 -115 -25 3 c-14 1 -43 12
-64 23 -22 11 -72 24 -113 29 -40 4 -85 15 -99 25 -14 9 -61 20 -107 25 -45 5
-100 16 -121 25 -22 9 -87 21 -145 25 -58 5 -124 16 -147 24 -23 8 -75 18
-116 22 l-74 6 0 62 c0 75 -50 283 -76 312 -10 11 -18 27 -18 36 0 8 -13 32
-30 53 -16 20 -32 45 -35 56 -4 10 -12 19 -20 19 -7 0 -15 12 -18 28 -10 48 4
455 18 527 7 39 16 105 20 148 3 43 8 84 12 92 6 17 29 20 38 5z m-1191 -1495
c6 -11 14 -22 17 -25 3 -3 9 -22 13 -43 4 -21 18 -54 32 -74 28 -42 30 -56 9
-73 -21 -17 -6 -27 57 -35 26 -4 50 -11 54 -16 3 -5 15 -10 27 -10 17 -1 15
-3 -8 -9 -16 -4 -85 -8 -152 -9 -97 -1 -133 -5 -173 -21 -42 -17 -85 -21 -243
-26 -141 -5 -201 -11 -227 -22 -19 -9 -86 -21 -147 -27 -73 -8 -119 -17 -130
-27 -10 -8 -42 -18 -72 -21 -29 -4 -70 -15 -90 -25 -20 -10 -49 -22 -66 -26
-28 -7 -118 -45 -156 -66 -28 -15 -39 10 -39 88 0 113 14 154 70 204 77 68
106 88 142 94 18 4 47 15 63 25 17 10 62 21 100 25 39 4 86 15 105 24 19 9 70
20 114 24 44 3 97 14 120 25 32 15 71 21 176 25 138 5 171 9 193 23 19 12 87
21 146 19 43 -1 56 -5 65 -21z m1470 6 c18 -15 132 -31 224 -31 62 0 91 -5
118 -19 22 -12 68 -22 122 -26 49 -4 102 -15 122 -25 19 -9 70 -20 113 -24 56
-4 86 -12 104 -26 14 -11 40 -22 59 -26 19 -3 34 -10 34 -15 0 -5 17 -18 38
-29 120 -63 167 -176 136 -327 -5 -24 -23 -29 -52 -14 -70 37 -123 59 -157 65
-22 4 -49 14 -61 21 -11 7 -50 19 -85 25 -35 6 -77 18 -93 27 -16 9 -79 20
-146 27 -68 6 -124 17 -133 25 -12 9 -75 16 -219 23 -145 7 -226 15 -283 30
-44 11 -127 24 -185 28 -58 4 -83 8 -57 8 76 3 116 31 93 64 -17 24 1 85 26
91 10 3 18 13 18 22 0 10 9 34 19 54 11 20 22 45 25 55 6 18 14 19 107 13 56
-4 106 -11 113 -16z m2889 -892 c26 -27 47 -52 47 -57 0 -5 11 -18 25 -30 14
-12 25 -26 25 -32 0 -5 7 -10 15 -10 9 0 21 -11 27 -25 6 -13 19 -27 30 -30
10 -4 18 -10 18 -15 0 -5 12 -23 28 -40 15 -16 41 -46 57 -66 71 -84 162 -172
183 -177 28 -7 94 10 107 27 6 8 26 17 45 21 19 4 53 17 75 30 22 12 52 25 66
28 14 4 36 16 49 27 13 11 30 20 39 20 9 0 30 9 46 20 35 23 55 25 55 6 0 -8
11 -28 25 -44 14 -17 25 -35 25 -40 0 -6 11 -23 25 -38 14 -15 25 -32 25 -38
0 -6 11 -24 25 -40 14 -17 28 -40 31 -53 4 -13 10 -23 15 -23 5 0 17 -17 28
-38 11 -21 27 -44 35 -51 9 -8 16 -22 16 -33 0 -10 7 -21 15 -24 8 -4 24 -26
34 -50 11 -24 24 -44 30 -44 5 0 12 -13 16 -29 3 -16 13 -35 21 -42 9 -7 21
-24 29 -39 8 -15 28 -42 45 -60 28 -30 37 -33 76 -31 24 1 59 10 77 21 28 16
84 28 139 29 9 1 23 7 30 15 20 20 78 26 78 8 0 -8 12 -29 28 -47 15 -18 38
-50 52 -70 14 -20 33 -45 42 -56 9 -10 26 -36 38 -59 11 -22 24 -40 29 -40 5
0 14 -13 20 -30 5 -16 14 -30 19 -30 5 0 17 -18 27 -40 10 -22 22 -40 26 -40
5 0 15 -16 23 -35 8 -19 20 -35 25 -35 6 0 18 -15 26 -32 21 -45 74 -118 86
-118 5 0 9 -8 9 -17 1 -10 14 -34 30 -53 17 -19 30 -38 30 -43 0 -5 24 -35 54
-66 87 -91 179 -211 244 -322 13 -21 28 -39 33 -39 5 0 9 -5 9 -10 0 -9 31
-56 108 -163 26 -38 58 -83 106 -152 20 -27 38 -63 42 -80 3 -16 13 -37 20
-45 31 -32 84 -106 84 -115 0 -6 9 -16 20 -23 11 -7 20 -19 20 -27 0 -7 8 -20
18 -27 9 -7 26 -26 36 -43 19 -29 124 -134 186 -185 17 -14 40 -35 52 -47 12
-13 28 -23 35 -23 8 0 13 -12 13 -33 l0 -34 -52 18 c-29 9 -98 20 -153 24 -55
3 -134 13 -175 20 -41 8 -134 19 -205 25 -72 6 -200 20 -285 30 -85 10 -195
22 -245 25 -49 4 -119 13 -155 20 -36 8 -119 16 -185 20 -153 7 -183 13 -190
35 -3 10 -18 21 -32 25 -15 3 -33 15 -40 25 -8 11 -29 22 -48 26 -21 4 -35 12
-35 21 0 8 -13 19 -30 24 -16 6 -30 15 -30 20 0 5 -15 16 -32 25 -18 9 -46 27
-63 40 -84 66 -135 101 -172 118 -18 8 -33 19 -33 25 0 5 -8 12 -18 15 -10 4
-34 20 -52 36 -19 17 -39 30 -46 30 -8 0 -18 9 -24 20 -6 11 -17 20 -24 20 -7
0 -25 11 -40 25 -15 14 -36 25 -46 25 -19 0 -69 28 -122 69 -14 12 -29 21 -33
21 -4 0 -34 20 -66 45 -33 25 -63 45 -67 45 -4 0 -27 16 -52 35 -25 19 -49 38
-55 42 -5 5 -41 29 -80 55 -38 26 -106 72 -150 103 -44 30 -110 76 -147 101
-37 26 -73 53 -79 60 -6 8 -17 14 -25 14 -7 0 -17 6 -21 13 -4 7 -41 35 -81
62 -109 74 -113 77 -172 121 -85 63 -108 72 -249 92 -148 22 -108 -1 -362 204
-66 54 -129 104 -138 110 -48 34 -52 108 -6 108 37 0 31 27 -7 36 -18 4 -36 9
-40 10 -5 1 -26 2 -49 3 -36 1 -40 4 -37 24 3 22 1 24 -54 26 -35 1 -36 17 -2
25 19 5 33 2 48 -12 11 -11 33 -22 49 -26 22 -5 27 -3 27 13 0 13 -11 24 -35
32 -19 7 -35 17 -35 21 0 4 -10 18 -21 29 l-21 21 26 25 c23 21 25 27 14 41
-11 13 -11 15 3 10 20 -8 44 6 35 21 -10 16 -43 13 -50 -5 -3 -8 -11 -12 -17
-8 -8 5 -5 12 8 23 11 9 23 24 27 34 3 11 15 21 26 24 11 3 20 12 20 19 0 8
12 19 26 24 14 6 28 19 31 30 3 12 14 20 25 20 12 0 22 9 25 21 3 11 16 25 29
30 13 4 24 15 24 24 0 8 11 17 25 21 14 3 25 13 25 20 0 8 11 20 25 26 13 6
27 19 30 28 3 9 17 22 30 28 14 6 25 18 25 27 0 8 6 15 13 15 8 0 25 12 39 28
14 15 65 63 113 107 49 44 101 92 117 108 16 15 33 27 38 27 6 0 10 6 10 14 0
8 9 18 20 21 11 3 25 15 31 26 5 11 21 24 35 29 13 5 24 16 24 23 0 8 11 19
25 25 14 6 25 18 25 25 0 8 11 19 25 25 14 6 25 16 25 21 0 6 12 17 28 25 26
14 28 14 62 -26 19 -22 56 -62 83 -89z m-7499 -15 c9 -23 7 -165 -5 -284 -12
-124 -28 -350 -36 -506 l-5 -111 92 -96 c147 -153 160 -181 120 -265 -24 -50
-25 -59 -4 -108 27 -65 2 -273 -43 -357 -33 -59 -71 -73 -164 -58 -49 8 -70
17 -96 43 -19 18 -36 43 -39 55 -7 27 -84 77 -143 93 -71 19 -110 50 -262 211
-329 349 -317 339 -391 303 -26 -12 -39 -13 -61 -5 l-28 11 18 30 c18 31 23
33 97 45 95 16 234 116 385 279 20 21 43 46 51 55 58 60 252 300 297 368 7 10
24 34 37 53 14 19 35 51 46 70 11 19 34 55 50 80 16 25 37 60 47 78 19 36 28
40 37 16z m4416 -224 c0 -14 -144 -156 -233 -229 -105 -87 -115 -108 -74 -153
12 -13 33 -40 47 -58 14 -19 70 -88 126 -154 55 -67 111 -134 125 -150 13 -17
50 -57 81 -89 l58 -60 58 6 c55 6 61 4 113 -30 64 -44 209 -190 209 -212 0 -5
28 -51 63 -101 91 -134 123 -200 130 -265 5 -51 11 -63 67 -128 76 -89 89
-113 69 -131 -16 -15 -249 -40 -371 -39 -93 1 -260 19 -343 38 -33 8 -112 19
-175 25 -63 6 -137 18 -165 26 -27 8 -106 21 -175 29 -69 8 -148 21 -175 30
-28 8 -79 17 -115 21 -101 9 -127 20 -139 57 -5 19 -10 253 -11 570 l-1 539
26 33 c30 40 256 167 512 288 21 10 45 22 53 28 8 5 34 18 56 29 23 11 47 27
54 35 7 8 20 15 29 15 9 0 30 9 46 20 32 21 55 26 55 10z m-3840 -68 c25 -12
63 -36 85 -52 22 -17 56 -42 75 -55 105 -74 163 -116 233 -170 43 -33 106 -79
140 -103 34 -24 71 -52 83 -63 11 -10 24 -19 30 -19 5 -1 27 -16 49 -35 38
-33 39 -34 21 -54 -26 -28 -66 -34 -109 -16 -20 8 -50 15 -66 15 -17 0 -51 11
-77 25 -34 18 -62 25 -104 25 -34 0 -64 6 -76 15 -26 20 -174 21 -174 1 0 -7
7 -19 15 -26 10 -8 13 -25 10 -53 -3 -23 -7 -102 -9 -175 -3 -104 -8 -137 -20
-151 -9 -10 -23 -39 -32 -65 -11 -31 -25 -51 -43 -61 -15 -7 -32 -25 -39 -39
-6 -14 -16 -26 -21 -26 -6 0 -3 -13 7 -29 15 -26 15 -35 3 -78 -8 -26 -17 -91
-20 -143 l-6 -95 -83 -3 c-68 -2 -83 0 -88 13 -18 45 -2 554 20 635 8 30 17
123 21 205 4 83 9 154 12 158 3 5 17 13 31 19 l27 11 -31 10 c-31 9 -32 11
-38 87 -4 43 -4 95 0 116 11 62 73 184 97 194 12 5 24 8 27 6 3 -1 25 -12 50
-24z m4143 -56 c21 -8 46 -21 56 -30 12 -11 35 -15 87 -13 75 2 79 0 199 -104
16 -15 55 -48 85 -74 58 -50 218 -195 280 -255 47 -45 73 -94 64 -123 -13 -41
-39 -47 -72 -16 -35 31 -56 11 -27 -26 55 -70 124 -177 135 -209 8 -25 10 -60
6 -100 -6 -54 -23 -126 -30 -126 -30 0 -165 125 -256 236 -52 65 -97 94 -143
94 -21 0 -54 7 -73 16 -19 9 -37 14 -40 11 -3 -3 4 -23 15 -44 16 -33 50 -74
155 -190 6 -6 102 -103 212 -215 111 -111 209 -218 218 -235 13 -27 15 -50 10
-127 -6 -88 -8 -94 -30 -99 -19 -3 -41 15 -123 102 -158 169 -205 221 -271
301 -34 41 -68 82 -76 90 -8 8 -40 44 -71 80 -32 35 -70 76 -85 91 -16 15 -28
30 -28 34 0 5 -9 17 -20 29 -29 30 -110 121 -140 157 -14 17 -36 43 -50 58
-14 15 -37 43 -52 62 -69 89 -84 109 -103 135 -11 15 -35 46 -53 68 -18 23
-43 54 -55 69 -12 15 -28 34 -35 42 -32 35 -122 160 -123 169 -3 26 4 42 29
63 38 31 97 30 144 -2 65 -44 124 -28 130 35 5 55 55 73 131 46z m-4422 -873
c15 -40 18 -79 19 -258 2 -232 2 -223 -20 -235 -20 -11 -20 -8 -20 255 0 146
2 265 5 265 3 0 10 -12 16 -27z m1581 -580 c4 -11 75 -63 85 -63 4 0 14 -9 21
-20 7 -11 16 -20 21 -20 6 0 43 -31 83 -70 40 -38 80 -72 90 -75 9 -3 23 -17
32 -30 9 -14 22 -25 29 -25 8 0 23 -11 35 -25 12 -14 28 -25 37 -25 8 0 19 -9
25 -19 5 -11 19 -23 30 -26 11 -3 20 -13 20 -21 0 -8 4 -14 9 -14 6 0 31 -18
56 -40 25 -22 50 -40 56 -40 5 0 9 -7 9 -15 0 -10 -10 -15 -34 -15 -18 0 -39
7 -46 15 -14 17 -70 21 -70 5 0 -5 -11 -10 -25 -10 -14 0 -25 4 -25 10 0 5
-11 21 -25 35 -21 20 -36 25 -74 25 -38 0 -52 5 -72 26 -13 14 -40 33 -59 43
-28 13 -36 23 -40 51 -4 26 -12 38 -33 48 -25 12 -77 80 -77 101 0 5 -7 11
-15 15 -8 3 -15 12 -15 19 0 8 -9 22 -20 32 -12 10 -20 31 -20 49 0 17 -7 40
-15 50 -12 16 -12 22 -2 28 15 10 24 10 29 1z"/>
<path d="M13230 9257 c0 -23 2 -24 118 -29 119 -6 235 2 217 14 -30 19 -143
38 -234 38 -99 0 -101 0 -101 -23z"/>
<path d="M14923 8919 c-13 -5 -23 -13 -23 -18 0 -5 22 -31 49 -58 82 -80 111
-122 111 -161 0 -71 21 -111 85 -166 34 -29 97 -90 141 -136 43 -46 91 -96
107 -111 15 -15 27 -31 27 -36 0 -6 9 -18 20 -28 11 -10 20 -23 20 -30 0 -26
65 -107 101 -125 31 -16 59 -20 149 -20 109 0 112 1 140 28 38 38 30 74 -29
133 -87 88 -127 134 -176 207 -27 41 -73 94 -102 119 -44 38 -64 48 -120 58
-91 18 -137 39 -162 74 -26 37 -27 92 -2 115 23 21 32 72 16 86 -7 5 -47 15
-91 21 -43 7 -97 20 -119 29 -49 22 -112 30 -142 19z"/>
<path d="M10235 9623 c-19 -21 -35 -41 -35 -44 0 -4 11 -14 25 -23 14 -9 56
-45 93 -80 112 -106 169 -135 200 -104 11 11 -6 44 -43 84 -16 19 -52 65 -96
124 -69 94 -91 100 -144 43z"/>
</g>
</svg>
