<?xml version="1.0" encoding="UTF-8"?>
<svg version="1.1" xmlns="http://www.w3.org/2000/svg" width="1188" height="414">
<path d="M0 0 C64.35 0 128.7 0 195 0 C195 16.17 195 32.34 195 49 C190.05 49.99 185.1 50.98 180 52 C175.72322493 53.53934762 175.72322493 53.53934762 172.3125 55.4375 C171.19488281 56.01371094 170.07726562 56.58992188 168.92578125 57.18359375 C166.17554884 58.89101441 164.24207808 60.69718843 162 63 C161.34 63 160.68 63 160 63 C159.72929687 63.57621094 159.45859375 64.15242188 159.1796875 64.74609375 C157.9897289 67.01962393 156.62522282 68.98317563 155.125 71.0625 C148.24756746 81.25253452 145.64986392 92.97239518 147.4609375 105.08203125 C150.19695439 118.64945619 156.64289471 129.92089986 168.1875 137.75 C176.90440509 142.98731746 184.90317632 144.8781307 195 146 C195 161.84 195 177.68 195 194 C130.65 194 66.3 194 0 194 C0 178.16 0 162.32 0 146 C6.93 145.01 6.93 145.01 14 144 C27.09488173 139.23822483 37.37973171 131.31083762 43.7109375 118.80078125 C48.9435009 107.43184804 50.09556601 94.6270969 46.375 82.5625 C40.8694053 68.46045041 32.63340459 59.57811772 19 53 C12.66479551 50.69169411 6.73159002 49.84144875 0 49 C0 32.83 0 16.66 0 0 Z " fill="#05BFE0" transform="translate(1,218)"/>
<path d="M0 0 C18.77786438 1.17361652 18.77786438 1.17361652 25.5 3.0625 C26.28697266 3.27801514 27.07394531 3.49353027 27.88476562 3.71557617 C40.53300137 7.39531732 51.8038438 13.69084627 62 22 C63.25876953 23.01320313 63.25876953 23.01320313 64.54296875 24.046875 C82.29478061 39.12903454 92.15272402 59.54945863 97 82 C97.23074219 80.98421875 97.46148437 79.9684375 97.69921875 78.921875 C103.86497835 52.56059923 117.68683728 30.28238848 140.51171875 15.1015625 C156.83405649 4.99218386 174.82871033 0 194 0 C194 64.35 194 128.7 194 195 C163.29922491 193.08120156 138.88814517 183.07945651 118 160 C107.07148911 146.60303696 99.50607426 130.12044413 97 113 C96.86537354 113.54712646 96.73074707 114.09425293 96.59204102 114.65795898 C91.83137009 133.58404675 84.68276278 149.11803762 72 164 C71.44054687 164.66128906 70.88109375 165.32257813 70.3046875 166.00390625 C58.65360204 178.62103649 41.88533412 187.43257863 25.5 191.9375 C24.79012939 192.13706299 24.08025879 192.33662598 23.34887695 192.54223633 C15.46517128 194.51118765 8.43438759 194.47285078 0 195 C0 130.65 0 66.3 0 0 Z " fill="#FF610F" transform="translate(212,8)"/>
<path d="M0 0 C21.78 -0.061875 43.56 -0.12375 66 -0.1875 C72.85007812 -0.21481201 79.70015625 -0.24212402 86.7578125 -0.27026367 C95.19140625 -0.28381348 95.19140625 -0.28381348 99.15283203 -0.28633118 C101.89063407 -0.2909061 104.628005 -0.30023782 107.36572266 -0.31672668 C145.29653502 -0.53504254 145.29653502 -0.53504254 158.375 6.6875 C159.03508057 7.03707764 159.69516113 7.38665527 160.37524414 7.74682617 C177.00508502 16.821532 188.29590858 31.38440744 193.9375 49.4375 C197.89613935 67.86991446 195.42812099 86.5124204 186.10546875 102.83203125 C175.69092312 118.50215464 160.53396326 129.29993157 142.12564087 133.3890686 C133.18121439 134.92428383 123.89383153 134.36032007 114.85546875 134.29296875 C112.63202706 134.28736353 110.40858163 134.28309781 108.18513489 134.28010559 C102.37370313 134.26872974 96.56250143 134.23932601 90.75115967 134.20599365 C83.75672916 134.16969598 76.76222111 134.15609702 69.76772308 134.13863373 C59.17832275 134.10968367 48.5894258 134.05214563 38 134 C38 154.13 38 174.26 38 195 C25.46 195 12.92 195 0 195 C0 130.65 0 66.3 0 0 Z M38 38 C38 57.47 38 76.94 38 97 C54.05857808 97.08736838 54.05857808 97.08736838 70.1171875 97.14648438 C76.67422845 97.1643645 83.2311428 97.18543568 89.78808594 97.22631836 C95.07898082 97.25909787 100.3697398 97.27689202 105.66072845 97.28463173 C107.67157885 97.29014202 109.68242245 97.30090161 111.69321442 97.31719017 C131.71129191 97.79986299 131.71129191 97.79986299 149.09375 88.95703125 C154.91112561 82.98468457 157.91478398 76.10811678 158.375 67.75 C158.13163541 59.34676402 154.82905192 51.79301577 149.0703125 45.72265625 C143.81828045 41.35256921 136.90336835 37.87071455 129.9947052 37.87974548 C129.18282242 37.87837082 128.37093964 37.87699615 127.53445435 37.87557983 C126.20412674 37.88097275 126.20412674 37.88097275 124.84692383 37.88647461 C123.91014297 37.88632858 122.97336212 37.88618256 122.00819397 37.8860321 C118.90778295 37.8867295 115.80743179 37.89451383 112.70703125 37.90234375 C110.55897555 37.90420854 108.41091943 37.90563216 106.26286316 37.90663147 C100.60591459 37.9104518 94.94899165 37.92027799 89.29205322 37.93133545 C82.50640645 37.94335724 75.72075111 37.94795412 68.93509674 37.95378876 C58.62338 37.96348997 48.3117195 37.98264994 38 38 Z " fill="#000000" transform="translate(1,8)"/>
<path d="M0 0 C0.28453789 7.40852358 0.43560948 13.73252119 -2.3359375 20.6484375 C-3.47497506 24.6819705 -3.16009358 28.72944524 -3.0078125 32.88671875 C-2.99987613 36.04936291 -3.44763519 38.89242087 -4 42 C-4.06092012 43.45720928 -4.08764251 44.91673459 -4.0625 46.375 C-4.041875 47.57125 -4.02125 48.7675 -4 50 C-3.13375 49.175 -2.2675 48.35 -1.375 47.5 C1.11356307 45.41243761 1.87177407 45.0147953 5.25 44.625 C8 45 8 45 10 46 C9.85913398 43.39547729 9.71251536 40.79149803 9.5625 38.1875 C9.52318359 37.44951172 9.48386719 36.71152344 9.44335938 35.95117188 C9.25618965 32.76928658 9.01279207 30.03837622 8 27 C7.93259135 25.43881572 7.91485544 23.8749748 7.9375 22.3125 C7.94652344 21.50425781 7.95554687 20.69601563 7.96484375 19.86328125 C7.97644531 19.24839844 7.98804688 18.63351563 8 18 C12.33367038 19.79511869 13.36855738 21.8218519 15.1328125 26.02734375 C16.39434271 30.35177838 16.83282784 34.75742989 17.14111328 39.23876953 C17.77071889 46.55546837 21.65040804 50.9065737 26.703125 55.93359375 C27.60160156 56.83013672 28.50007813 57.72667969 29.42578125 58.65039062 C30.35777344 59.57013672 31.28976562 60.48988281 32.25 61.4375 C33.16652344 62.35337891 34.08304687 63.26925781 35.02734375 64.21289062 C40.19358531 69.34596801 45.46982017 74.26420653 51 79 C53.18142359 80.92142479 55.3439426 82.86269809 57.5 84.8125 C58.03625 85.28880859 58.5725 85.76511719 59.125 86.25585938 C60.45547439 87.46245031 61.73312708 88.72679272 63 90 C63 90.66 63 91.32 63 92 C59.52676907 90.73314962 56.78147502 89.25163168 53.8125 87.0625 C49.74074858 84.2525141 45.96152918 82.85769014 41.1640625 81.73828125 C38.75104046 80.91506615 37.63893665 79.91914195 36 78 C35.401875 78.99 34.80375 79.98 34.1875 81 C33.465625 81.99 32.74375 82.98 32 84 C31.01 84 30.02 84 29 84 C28.01 81.36 27.02 78.72 26 76 C24.35 77.65 22.7 79.3 21 81 C16.58110387 79.64978174 14.65654657 77.73884332 12 74 C9.08482708 75.07401108 7.22189824 75.77810176 5 78 C1.71711224 77.88679697 0.69645513 76.71715137 -1.75 74.4375 C-2.4925 73.633125 -3.235 72.82875 -4 72 C-5.32 73.65 -6.64 75.3 -8 77 C-12.59306496 75.5140084 -15.43569245 73.14985318 -19 70 C-18.42655063 67.13275314 -18.1385485 66.1385485 -16 64 C-16.33916995 60.81180248 -16.98593683 58.04218951 -18 55 C-18.51949219 55.37253906 -19.03898437 55.74507813 -19.57421875 56.12890625 C-25.3450215 60.04366523 -25.3450215 60.04366523 -28.8125 59.8125 C-29.534375 59.544375 -30.25625 59.27625 -31 59 C-33.87199032 58.8508625 -33.87199032 58.8508625 -36 59.625 C-38 60 -38 60 -41 58 C-41.2475 56.845 -41.495 55.69 -41.75 54.5 C-42.65554424 50.71066338 -42.65554424 50.71066338 -46.25 49.3125 C-49.99416684 48.68668744 -49.99416684 48.68668744 -53.0625 50.4375 C-55.91119723 52.92253375 -58.26434041 55.46024218 -60.60546875 58.4140625 C-62 60 -62 60 -65 62 C-63.42025391 62.05607422 -63.42025391 62.05607422 -61.80859375 62.11328125 C-51.91165005 62.53624732 -42.67202755 63.76799364 -33 66 C-31.10701172 66.42732422 -31.10701172 66.42732422 -29.17578125 66.86328125 C-26.11371808 67.56176269 -23.05550998 68.27347908 -20 69 C-23.36118384 74.60843866 -27.66106074 78.90214079 -32.30859375 83.46875 C-33.11232925 84.26728394 -33.91606476 85.06581787 -34.74415588 85.8885498 C-37.30387529 88.4305226 -39.87019395 90.9656915 -42.4375 93.5 C-45.00036599 96.03515803 -47.56172281 98.57179479 -50.12013245 101.1114502 C-51.70892276 102.68808152 -53.30037875 104.26203256 -54.8948822 105.83288574 C-58.83092327 109.73359117 -62.54198016 113.66837965 -66 118 C-61.98635646 115.99317823 -58.99968812 114.27127854 -56.1875 110.75 C-53.11538182 106.92003835 -49.53542893 104.1191686 -45.6640625 101.125 C-42.02031667 98.21855171 -38.6300532 95.06457742 -35.2265625 91.8828125 C-33.203048 90.17170024 -31.41786797 89.04884684 -29 88 C-29.24031329 92.08532592 -29.44911372 94.37041568 -32.1875 97.5 C-33.115625 98.325 -34.04375 99.15 -35 100 C-35.94709795 101.17985931 -36.88415635 102.36782826 -37.8125 103.5625 C-40.02163727 106.21460053 -41.82304145 107.54975443 -45 108.875 C-48.63807406 110.44989406 -49.95499131 112.15214571 -51.9375 115.5625 C-54.10867573 119.19698869 -55.55415187 120.63315889 -59.625 121.875 C-60.35976562 122.03742188 -61.09453125 122.19984375 -61.8515625 122.3671875 C-64.50075257 123.0114838 -64.50075257 123.0114838 -68 126 C-73.445 126.99 -73.445 126.99 -79 128 C-79 99.95 -79 71.9 -79 43 C-69.375 43 -69.375 43 -63 47 C-61.68 47 -60.36 47 -59 47 C-58.34 44.03 -57.68 41.06 -57 38 C-57.5775 37.67386719 -58.155 37.34773438 -58.75 37.01171875 C-59.4925 36.57472656 -60.235 36.13773438 -61 35.6875 C-61.7425 35.25824219 -62.485 34.82898438 -63.25 34.38671875 C-63.8275 33.92910156 -64.405 33.47148437 -65 33 C-65 32.01 -65 31.02 -65 30 C-61.04 29.505 -61.04 29.505 -57 29 C-56.67 30.32 -56.34 31.64 -56 33 C-55.36191406 32.91621094 -54.72382813 32.83242187 -54.06640625 32.74609375 C-53.24011719 32.64425781 -52.41382813 32.54242188 -51.5625 32.4375 C-50.32693359 32.28087891 -50.32693359 32.28087891 -49.06640625 32.12109375 C-48.04353516 32.06115234 -48.04353516 32.06115234 -47 32 C-46 33 -46 33 -45.90234375 35.28515625 C-45.91394531 36.20167969 -45.92554688 37.11820313 -45.9375 38.0625 C-45.94652344 38.98160156 -45.95554688 39.90070313 -45.96484375 40.84765625 C-45.97644531 41.55792969 -45.98804688 42.26820313 -46 43 C-45.01 42.34 -44.02 41.68 -43 41 C-40.51953125 41.05859375 -40.51953125 41.05859375 -38 42 C-36.19921875 44.28515625 -36.19921875 44.28515625 -34.6875 47.0625 C-34.17574219 47.98160156 -33.66398437 48.90070313 -33.13671875 49.84765625 C-32.76160156 50.55792969 -32.38648438 51.26820313 -32 52 C-28.23908927 51.42622011 -28.23908927 51.42622011 -25.125 49.375 C-23 48 -23 48 -19.5625 48.0625 C-15.74429472 49.06729086 -13.94858845 50.46093772 -11 53 C-10.01 53 -9.02 53 -8 53 C-8.75925781 52.18015625 -9.51851563 51.3603125 -10.30078125 50.515625 C-11.30478454 49.42717284 -12.3086854 48.33862618 -13.3125 47.25 C-13.81201172 46.71117187 -14.31152344 46.17234375 -14.82617188 45.6171875 C-15.79870958 44.56092138 -16.76393099 43.4978653 -17.72119141 42.42773438 C-18.74648269 41.28304109 -19.79704548 40.16100476 -20.85546875 39.046875 C-22.6074148 35.91370185 -22.33215278 33.53798695 -22 30 C-19.08278098 20.2118219 -14.32684186 7.42668429 -5.75 1.3125 C-3 0 -3 0 0 0 Z " fill="#4F17A8" transform="translate(291,218)"/>
<path d="M0 0 C4.95 0 9.9 0 15 0 C20.33698525 11.25811814 25.15343456 22.71428178 29.94262695 34.21386719 C31.3218235 37.52236576 32.70860655 40.82761954 34.09570312 44.1328125 C34.9770242 46.24459904 35.85789982 48.35657156 36.73828125 50.46875 C37.15177322 51.45210327 37.5652652 52.43545654 37.99128723 53.4486084 C38.37226059 54.36726685 38.75323395 55.28592529 39.14575195 56.23242188 C39.48073196 57.034823 39.81571198 57.83722412 40.1608429 58.66394043 C41.0335296 61.09334027 41.55694122 63.46002864 42 66 C42.66 66 43.32 66 44 66 C44.08685059 65.36674805 44.17370117 64.73349609 44.26318359 64.08105469 C45.29969172 59.74681593 47.0469183 55.79673076 48.7890625 51.703125 C49.17057465 50.79608826 49.55208679 49.88905151 49.94515991 48.95452881 C51.16739725 46.05115146 52.39598502 43.15051395 53.625 40.25 C54.82727457 37.40107932 56.02822581 34.55160378 57.22894287 31.70202637 C58.01602359 29.83487324 58.80398088 27.96808937 59.59283447 26.10168457 C62.41332129 19.42193508 65.18570239 12.72358408 67.90029907 6.00006104 C69.89207055 1.10792945 69.89207055 1.10792945 71 0 C75.62 0 80.24 0 85 0 C85 26.07 85 52.14 85 79 C81.7 79 78.4 79 75 79 C74.67 59.53 74.34 40.06 74 20 C65.56627869 39.62756958 57.15509493 59.25507603 49 79 C45.04 79 41.08 79 37 79 C34.0351264 72.04587818 31.07072376 65.09155596 28.10714149 58.13688374 C26.73089972 54.90729321 25.35445467 51.67778963 23.97753906 48.44848633 C22.39326857 44.73284511 20.8098931 41.01682308 19.2265625 37.30078125 C18.48740097 35.56771477 18.48740097 35.56771477 17.73330688 33.79963684 C17.27298065 32.71889389 16.81265442 31.63815094 16.33837891 30.5246582 C15.9342276 29.57645706 15.53007629 28.62825592 15.11367798 27.65132141 C14.04731878 25.11265132 13.02263809 22.55659522 12 20 C11.67 39.47 11.34 58.94 11 79 C7.37 79 3.74 79 0 79 C0 52.93 0 26.86 0 0 Z " fill="#000000" transform="translate(506,115)"/>
<path d="M0 0 C45.84090909 0 45.84090909 0 55.8125 9.75 C59.96232825 15.91545911 62.01524761 22.56438371 61 30 C59.62325283 37.04497652 56.48097863 42.34116817 51 47 C45.05845337 50.5201629 39.03715605 52.1421752 32.13671875 52.09765625 C30.93728638 52.09390991 30.93728638 52.09390991 29.71362305 52.09008789 C28.71500244 52.08098389 27.71638184 52.07187988 26.6875 52.0625 C21.8921875 52.0315625 21.8921875 52.0315625 17 52 C17 61.24 17 70.48 17 80 C11.39 80 5.78 80 0 80 C0 53.6 0 27.2 0 0 Z M17 14 C17 21.92 17 29.84 17 38 C19.660625 38.0825 22.32125 38.165 25.0625 38.25 C25.8862915 38.28641602 26.71008301 38.32283203 27.55883789 38.36035156 C33.19153009 38.44398871 36.3912485 37.26428768 41 34 C43.7024425 29.94633625 43.52736817 26.75468449 43 22 C41.65058105 18.55148489 40.55854266 17.35334635 37.4375 15.37890625 C33.14433315 13.65676091 29.68483337 13.66297557 25.125 13.8125 C21.103125 13.9053125 21.103125 13.9053125 17 14 Z " fill="#000000" transform="translate(506,7)"/>
<path d="M0 0 C3.125 2.25 3.125 2.25 5 4 C5.66 2.02 6.32 0.04 7 -2 C9.64 -2 12.28 -2 15 -2 C15.09315209 5.65019455 15.16399231 13.30032944 15.20724869 20.95096397 C15.22802189 24.50446139 15.25614773 28.05756754 15.30175781 31.61083984 C15.35399721 35.70674143 15.37302984 39.80223942 15.390625 43.8984375 C15.41127014 45.1592514 15.43191528 46.42006531 15.45318604 47.71908569 C15.45536992 56.39675517 14.2056032 63.36657354 9.2109375 70.5859375 C0.73733771 78.84319007 -8.29140468 81.11312652 -20 81 C-30.68026587 80.2004079 -39.28309736 76.20862041 -46.91796875 68.74609375 C-48 67 -48 67 -47.828125 64.92578125 C-46.584215 62.03310375 -44.55612119 60.74564374 -42 59 C-41.34 59 -40.68 59 -40 59 C-38.7734375 60.390625 -38.7734375 60.390625 -37.375 62.25 C-33.30928733 67.17270113 -28.22684914 69.74515968 -22 71 C-14.0027721 71.70723784 -7.48779141 70.8677396 -1.1875 65.6875 C3.6711368 59.71831764 4.57095588 54.48608021 5 47 C4.13375 47.763125 3.2675 48.52625 2.375 49.3125 C-4.16074832 54.74101567 -10.58158554 56.55202718 -19 56 C-28.15181847 54.02436935 -34.29040464 50.65555767 -39.74609375 42.94921875 C-44.62931477 35.358168 -44.89629117 26.18096859 -43.3125 17.5 C-41.35100418 9.58590922 -36.73677423 3.52406805 -30 -1 C-20.5287438 -6.43264696 -9.3004195 -5.03276814 0 0 Z M-30.703125 13.0859375 C-34.70563062 18.99325001 -34.71811001 25.08819112 -34 32 C-32.01903922 38.86582997 -27.81265001 42.83606351 -21.6875 46.3125 C-15.10915928 47.99533135 -9.19948546 47.46174509 -3.08203125 44.47265625 C1.69337939 41.09492677 4.92982275 35.73062657 6 30 C6.58142771 23.2554386 5.33058531 17.93579774 2 12 C-1.400979 8.09887703 -5.62947478 5.25422067 -10.8046875 4.69921875 C-19.92816363 4.66439632 -24.74728568 6.07341701 -30.703125 13.0859375 Z " fill="#000000" transform="translate(833,139)"/>
<path d="M0 0 C6.93419065 5.14702811 10.18825586 11.75881737 11.49609375 20.203125 C12.27573529 28.17279412 12.27573529 28.17279412 11 32 C-1.54 32 -14.08 32 -27 32 C-23.23202248 41.42536022 -23.23202248 41.42536022 -19.125 44.125 C-14.1855251 45.50805297 -10.59108946 45.58135961 -5.75 43.8125 C-2.75924686 41.8413218 -1.55204295 40.19031051 0 37 C1.60746056 37.42523816 3.21089836 37.86570126 4.8125 38.3125 C5.70582031 38.55613281 6.59914063 38.79976562 7.51953125 39.05078125 C10.05247738 40.0200819 11.2716496 40.95009604 13 43 C9.6920155 49.89163437 5.34540611 54.22673539 -1.8046875 57.14453125 C-11.30718696 59.68859895 -21.44154098 58.89054801 -30 54 C-36.40059215 49.77319386 -40.39247024 43.48479008 -42 36 C-42.69221298 24.44798671 -42.87625634 14.28935455 -35.6875 4.625 C-26.80719925 -4.04878213 -10.89721144 -6.85667237 0 0 Z M-23 12 C-25.96656826 16.68816985 -25.96656826 16.68816985 -27 22 C-19.41 22 -11.82 22 -4 22 C-5.11063246 14.79265046 -5.11063246 14.79265046 -9.8125 9.6875 C-14.92917156 8.07940323 -18.8796775 8.53025474 -23 12 Z " fill="#000000" transform="translate(762,31)"/>
<path d="M0 0 C5.34840232 5.05748504 8.11226607 9.99928495 8.9921875 17.390625 C5.6921875 18.050625 2.3921875 18.710625 -1.0078125 19.390625 C-1.31074219 18.71515625 -1.61367188 18.0396875 -1.92578125 17.34375 C-5.1920731 10.33807568 -5.1920731 10.33807568 -11.0078125 5.390625 C-16.67928264 3.50013495 -22.81579164 3.63338143 -28.4453125 5.578125 C-31.86315715 7.99562487 -34.53823673 10.02837136 -35.390625 14.31640625 C-35.60072752 18.03522083 -35.39713766 19.78025776 -33.3359375 23.01171875 C-30.65980952 25.74621865 -28.9226773 26.45319361 -25.2578125 27.453125 C-23.53884766 27.93845703 -23.53884766 27.93845703 -21.78515625 28.43359375 C-19.17561718 29.09474894 -16.57395709 29.72473112 -13.94921875 30.31640625 C-4.3725913 32.49450851 4.93174573 34.75694652 11.1171875 43.015625 C14.53829097 49.33617431 13.83887143 56.52130725 11.8671875 63.203125 C7.40957113 70.78107283 2.6490099 75.16171143 -5.74609375 77.97265625 C-15.61496727 79.79643771 -27.22530443 79.50918049 -36.0078125 74.390625 C-42.94578255 69.37439381 -48.58637101 63.89217475 -50.45703125 55.3359375 C-50.71047444 53.69678546 -50.87007079 52.0435255 -51.0078125 50.390625 C-47.7078125 49.730625 -44.4078125 49.070625 -41.0078125 48.390625 C-40.7396875 49.18726563 -40.4715625 49.98390625 -40.1953125 50.8046875 C-36.93583771 59.61813579 -33.54705482 63.68255098 -25.1953125 67.765625 C-17.31816234 69.31016425 -10.20265417 69.05115848 -3.0078125 65.390625 C0.6226268 62.13253845 1.73904859 59.05956968 2.078125 54.3125 C1.93633732 51.14161197 1.13477976 49.72799837 -1.0078125 47.390625 C-6.73698844 43.74718998 -12.81242727 42.31702431 -19.3828125 40.953125 C-29.74076088 38.62888051 -38.71928733 36.51912927 -45.0078125 27.390625 C-47.47031564 22.46561872 -46.55927765 15.75536368 -46.0078125 10.390625 C-43.81866364 4.10590983 -40.08327629 -0.56235263 -34.19921875 -3.7109375 C-22.96481255 -8.31684378 -9.6923124 -7.76893523 0 0 Z " fill="#000000" transform="translate(556.0078125,333.609375)"/>
<path d="M0 0 C3.17501952 1.90092371 5.31337093 4.2200564 7.375 7.3125 C7.89449219 6.83039063 8.41398438 6.34828125 8.94921875 5.8515625 C9.64660156 5.21992188 10.34398437 4.58828125 11.0625 3.9375 C11.74699219 3.31101563 12.43148437 2.68453125 13.13671875 2.0390625 C19.47950698 -2.85362929 26.69586387 -2.3816592 34.375 -1.6875 C39.18483283 -0.39112852 41.71563788 1.48407067 44.8125 5.375 C46.78464961 9.08264127 47.49986005 11.73858149 47.48852539 15.87573242 C47.48841209 17.25682442 47.48841209 17.25682442 47.48829651 18.66581726 C47.48313522 19.65652725 47.47797394 20.64723724 47.47265625 21.66796875 C47.4712413 22.68474197 47.46982635 23.7015152 47.46836853 24.74909973 C47.46276707 27.99942964 47.45021432 31.24969088 47.4375 34.5 C47.43248519 36.70247296 47.42792225 38.90494701 47.42382812 41.10742188 C47.41279716 46.50914107 47.39553154 51.91080889 47.375 57.3125 C44.405 57.3125 41.435 57.3125 38.375 57.3125 C38.36041748 56.10190918 38.34583496 54.89131836 38.33081055 53.64404297 C38.27268315 49.13740019 38.1954511 44.63124951 38.11254883 40.125 C38.07936735 38.17749032 38.05131443 36.22988603 38.02856445 34.28222656 C37.99489366 31.47680485 37.94257173 28.67224472 37.88671875 25.8671875 C37.88032883 25.00133026 37.8739389 24.13547302 37.86735535 23.24337769 C37.74595627 18.21181678 37.15295556 14.67645147 34.375 10.3125 C30.04321462 7.13463631 24.49050066 7.84814652 19.375 8.3125 C15.40875526 9.66271098 14.05230974 11.56322263 12.125 15.125 C9.37567619 20.77012798 9.23186299 26.71025053 9.05859375 32.8984375 C9.03781265 33.60022125 9.01703156 34.302005 8.99562073 35.02505493 C8.93073676 37.24577958 8.8715277 39.46661276 8.8125 41.6875 C8.76925646 43.20183371 8.7256404 44.71615683 8.68164062 46.23046875 C8.57511914 49.92436655 8.47368323 53.61838354 8.375 57.3125 C5.405 57.3125 2.435 57.3125 -0.625 57.3125 C-0.63958252 56.10190918 -0.65416504 54.89131836 -0.66918945 53.64404297 C-0.72731685 49.13740019 -0.8045489 44.63124951 -0.88745117 40.125 C-0.92063265 38.17749032 -0.94868557 36.22988603 -0.97143555 34.28222656 C-1.00510634 31.47680485 -1.05742827 28.67224472 -1.11328125 25.8671875 C-1.11967117 25.00133026 -1.1260611 24.13547302 -1.13264465 23.24337769 C-1.25404373 18.21181678 -1.84704444 14.67645147 -4.625 10.3125 C-8.95678538 7.13463631 -14.50949934 7.84814652 -19.625 8.3125 C-23.48103637 9.62519323 -24.85515279 11.40041168 -26.71582031 14.86914062 C-28.92287783 19.42371176 -29.22659406 23.40374489 -29.234375 28.40625 C-29.25091125 29.23838013 -29.26744751 30.07051025 -29.28448486 30.92785645 C-29.33263046 33.55614852 -29.3542603 36.18386354 -29.375 38.8125 C-29.4031878 40.60679935 -29.43311912 42.4010722 -29.46484375 44.1953125 C-29.53837973 48.56766074 -29.58815766 52.9396949 -29.625 57.3125 C-32.925 57.3125 -36.225 57.3125 -39.625 57.3125 C-39.625 38.5025 -39.625 19.6925 -39.625 0.3125 C-36.985 0.3125 -34.345 0.3125 -31.625 0.3125 C-30.965 1.9625 -30.305 3.6125 -29.625 5.3125 C-28.738125 4.52875 -27.85125 3.745 -26.9375 2.9375 C-19.91466134 -3.26872951 -8.37812498 -3.89716925 0 0 Z " fill="#000000" transform="translate(961.625,136.6875)"/>
<path d="M0 0 C7.49430473 4.47891949 12.20388144 10.59786691 14.4375 19 C14.85323982 22.15914907 14.91553999 25.25399359 14.875 28.4375 C14.86670166 29.27643799 14.85840332 30.11537598 14.84985352 30.97973633 C14.68329085 37.06075557 14.03532266 41.93956101 10.4375 47 C9.95152344 47.71414062 9.46554687 48.42828125 8.96484375 49.1640625 C4.75357018 54.63971371 0.18725634 57.53066529 -6.5625 59 C-16.1616313 60.0579984 -24.64307199 59.29985426 -32.58984375 53.52734375 C-39.03747358 47.76128155 -41.47650166 40.49307636 -42.4375 32.0625 C-42.95253144 21.74866535 -41.04365956 13.21638992 -34.5625 5 C-25.8575431 -3.33328458 -10.87868371 -4.96308612 0 0 Z M-22.5625 15 C-26.37348823 20.04186642 -27.19541426 25.08220473 -26.953125 31.3125 C-26.21671963 36.37896898 -24.2276035 40.22006178 -20.75 43.9375 C-16.42141266 46.03995671 -12.94952089 46.4623403 -8.375 44.9375 C-3.96769117 41.90135392 -1.58800155 38.21457863 -0.5625 33 C0.154332 26.09020956 -0.5658745 20.7729035 -4.5625 15 C-7.33667965 11.92858682 -10.42985139 11.23415769 -14.5390625 10.8828125 C-18.18449282 11.09393781 -19.94085413 12.55710271 -22.5625 15 Z " fill="#000000" transform="translate(668.5625,30)"/>
<path d="M0 0 C46.57142857 0 46.57142857 0 55.625 8.53125 C60.2381113 13.41050234 61.89231404 17.78005626 62.0625 24.44921875 C61.71793789 31.48043923 59.39757155 36.40587472 54.58203125 41.5 C45.31325742 49.84935123 34.20502046 49.14443341 22.5625 49.0625 C16.3440625 49.0315625 16.3440625 49.0315625 10 49 C10 59.23 10 69.46 10 80 C6.7 80 3.4 80 0 80 C0 53.6 0 27.2 0 0 Z M10 9 C10 18.9 10 28.8 10 39 C14.62 39.0825 19.24 39.165 24 39.25 C25.44117188 39.28641602 26.88234375 39.32283203 28.3671875 39.36035156 C35.73308323 39.42392138 40.81358235 39.13679142 47 35 C50.13316518 31.63184743 51.25739808 29.01087941 51.5 24.5 C51.26576869 20.00427002 50.07249281 17.38762028 47 14 C41.19307962 9.61317395 35.26306116 8.86417709 28.1640625 8.90234375 C26.72474365 8.90609009 26.72474365 8.90609009 25.25634766 8.90991211 C24.05800293 8.91901611 22.8596582 8.92812012 21.625 8.9375 C15.870625 8.9684375 15.870625 8.9684375 10 9 Z " fill="#000000" transform="translate(718,330)"/>
<path d="M0 0 C2.31 0.33 4.62 0.66 7 1 C6.63930163 5.14803123 5.90598434 8.39335614 4.1875 12.1875 C0.71526743 20.3402512 -0.41723199 29.32845183 -2 38 C1.3 37.01 4.6 36.02 8 35 C8 58.1 8 81.2 8 105 C5.05377925 103.52688963 2.78821467 102.22464911 0.19140625 100.3046875 C-0.54585693 99.76110596 -1.28312012 99.21752441 -2.04272461 98.6574707 C-2.83300049 98.06925537 -3.62327637 97.48104004 -4.4375 96.875 C-5.26064697 96.26551514 -6.08379395 95.65603027 -6.93188477 95.02807617 C-15.99215882 88.29945901 -24.96219646 81.45172432 -33.91967773 74.5871582 C-35.34588604 73.49904881 -36.79786632 72.4441454 -38.26977539 71.41870117 C-39.12623657 70.71644409 -39.12623657 70.71644409 -40 70 C-40 69.34 -40 68.68 -40 68 C-35.71025294 66.54090236 -31.4285356 65.09085802 -27.0625 63.875 C-24.11646012 63.13501695 -24.11646012 63.13501695 -22 62 C-20.12620395 61.92966231 -18.24998898 61.9156978 -16.375 61.9375 C-14.87066406 61.95103516 -14.87066406 61.95103516 -13.3359375 61.96484375 C-12.56507813 61.97644531 -11.79421875 61.98804688 -11 62 C-9.80392707 53.91415163 -9.67170925 45.8343159 -9.48242188 37.671875 C-9.44826172 36.58648437 -9.41410156 35.50109375 -9.37890625 34.3828125 C-9.3538501 33.39684082 -9.32879395 32.41086914 -9.30297852 31.39501953 C-9 29 -9 29 -7 27 C-6.68711051 23.26320555 -6.62055169 19.54537762 -6.5390625 15.796875 C-5.93025406 11.50874595 -4.56428101 9.42886618 -2 6 C-0.75675853 2.7750792 -0.75675853 2.7750792 0 0 Z " fill="#4F17A8" transform="translate(398,244)"/>
<path d="M0 0 C6.25545888 3.63187004 9.84541288 9.27166815 11.875 16.125 C12.08125 17.094375 12.2875 18.06375 12.5 19.0625 C10.75183142 19.56886607 9.00137737 20.06734619 7.25 20.5625 C6.27546875 20.8409375 5.3009375 21.119375 4.296875 21.40625 C1.5 22.0625 1.5 22.0625 -2.5 22.0625 C-2.75394531 21.50820313 -3.00789062 20.95390625 -3.26953125 20.3828125 C-3.61371094 19.65835938 -3.95789063 18.93390625 -4.3125 18.1875 C-4.64894531 17.46820313 -4.98539063 16.74890625 -5.33203125 16.0078125 C-6.49467097 13.75707194 -6.49467097 13.75707194 -9.5 12.0625 C-12.91499591 11.39542452 -12.91499591 11.39542452 -16.5 12.0625 C-19.52979229 14.51261264 -21.26736631 17.36459892 -22.5 21.0625 C-23.14088087 29.33091383 -23.31474785 36.10786422 -18.5 43.0625 C-14.77756711 45.34277329 -11.84942192 45.52033389 -7.5 45.0625 C-2.28988375 42.22061841 -1.20823642 38.4569308 0.5 33.0625 C2.62534659 33.20319196 4.75027529 33.35020921 6.875 33.5 C8.05835938 33.58121094 9.24171875 33.66242187 10.4609375 33.74609375 C13.5 34.0625 13.5 34.0625 15.5 35.0625 C15.05424651 42.04597142 12.70525001 47.96277263 7.6015625 52.8984375 C-0.50714109 59.26734262 -8.41894472 59.78999883 -18.5 59.0625 C-24.56424192 57.90786834 -29.49364997 54.73170112 -33.5 50.0625 C-39.68951578 40.2264478 -40.89819891 29.747962 -38.8125 18.375 C-36.84511716 10.72406672 -32.19827595 4.29440875 -25.5 0.0625 C-17.45326443 -3.20332992 -8.01839345 -3.52323348 0 0 Z " fill="#000000" transform="translate(821.5,29.9375)"/>
<path d="M0 0 C4.11610267 3.08956859 6.83078004 6.7264252 7.59725952 11.89935303 C7.74157298 14.20221083 7.79407623 16.48959171 7.8125 18.796875 C7.8304512 19.63183502 7.8484024 20.46679504 7.86689758 21.32705688 C7.92078047 23.97580011 7.95482486 26.62436544 7.98828125 29.2734375 C8.02147384 31.07684755 8.05596529 32.8802342 8.09179688 34.68359375 C8.176494 39.08841284 8.24340959 43.4931812 8.30078125 47.8984375 C9.06390625 47.5684375 9.82703125 47.2384375 10.61328125 46.8984375 C13.30078125 45.8984375 13.30078125 45.8984375 16.30078125 45.8984375 C18.05078125 47.0859375 18.05078125 47.0859375 19.30078125 48.8984375 C19.30078125 51.3984375 19.30078125 51.3984375 18.30078125 53.8984375 C14.56917343 57.38929643 10.48763673 57.40612541 5.609375 57.25390625 C3.30078125 56.8984375 3.30078125 56.8984375 0.80078125 55.1484375 C-0.55831091 53.10979926 -1.73424825 51.15003534 -2.69921875 48.8984375 C-3.54484375 49.6615625 -4.39046875 50.4246875 -5.26171875 51.2109375 C-13.15777279 57.61511036 -20.70883565 57.84433547 -30.69921875 56.8984375 C-37.125538 55.3098083 -41.05585676 52.36348048 -44.69921875 46.8984375 C-46.57988356 42.41377526 -46.18250305 37.37849567 -44.69921875 32.8359375 C-40.33381224 26.42424669 -34.64084921 23.32894306 -27.1953125 21.5546875 C-19.40227215 20.09185981 -11.55364964 18.9753198 -3.69921875 17.8984375 C-2.82897027 14.33896594 -2.82897027 14.33896594 -3.26171875 10.7734375 C-6.21470521 6.92171603 -10.38859789 5.77509876 -15.01171875 5.0234375 C-21.46387122 4.50117221 -26.63071575 6.22603082 -31.63671875 10.2734375 C-33.6109525 12.78609864 -34.74578481 14.86478405 -35.69921875 17.8984375 C-38.66921875 16.9084375 -41.63921875 15.9184375 -44.69921875 14.8984375 C-42.61827675 6.44461063 -39.27530312 2.4195155 -31.9609375 -2.19921875 C-22.67798942 -6.62457094 -8.46402809 -5.48702511 0 0 Z M-14.88671875 28.1484375 C-15.80775391 28.25800781 -16.72878906 28.36757812 -17.67773438 28.48046875 C-23.51720232 29.26790587 -28.81358964 30.44473744 -33.69921875 33.8984375 C-36.02965433 37.39409086 -36.28685119 38.7850104 -35.69921875 42.8984375 C-32.25894999 46.65145797 -28.64845433 47.99107764 -23.69921875 48.8984375 C-16.94255248 49.11757262 -11.88081835 47.21252948 -6.69921875 42.8984375 C-2.26954849 38.01444208 -1.94956145 33.23210781 -1.69921875 26.8984375 C-6.14754227 26.8984375 -10.48200033 27.56275184 -14.88671875 28.1484375 Z " fill="#000000" transform="translate(772.69921875,139.1015625)"/>
<path d="M0 0 C4.58049977 4.12995881 6.86778383 7.53442779 7.20532227 13.82885742 C7.24707366 15.42094434 7.28378315 17.01316863 7.31640625 18.60546875 C7.33718735 19.44467361 7.35796844 20.28387848 7.37937927 21.14851379 C7.44474018 23.82809294 7.50369714 26.50776969 7.5625 29.1875 C7.60569802 31.00456737 7.64931273 32.82162488 7.69335938 34.63867188 C7.8004078 39.09234799 7.90171319 43.54612226 8 48 C8.763125 47.67 9.52625 47.34 10.3125 47 C13 46 13 46 16 46 C18.1875 48 18.1875 48 20 50 C19.03441599 52.54563057 18.06131195 53.94635204 16 55.75 C11.64610708 57.56412205 7.63750809 57.96709939 3 57 C0.13798411 54.87782495 -1.41215277 52.17569445 -3 49 C-3.845625 49.763125 -4.69125 50.52625 -5.5625 51.3125 C-13.45407 57.71303603 -21.01395731 57.95509441 -31 57 C-36.77526633 55.51834546 -40.8345447 53.1913467 -44 48 C-46.67836184 43.40852256 -46.21373443 39.01440649 -45 34 C-42.19221864 28.48842917 -38.6750807 25.38911307 -32.87109375 23.1953125 C-25.61904615 20.99359539 -18.13267652 20.02485594 -10.64208984 19.00170898 C-9.79855957 18.88512939 -8.9550293 18.7685498 -8.0859375 18.6484375 C-7.3232959 18.54708496 -6.5606543 18.44573242 -5.77490234 18.34130859 C-3.98154499 18.16849719 -3.98154499 18.16849719 -3 17 C-3.20497328 12.20148788 -3.20497328 12.20148788 -5.5625 8.1875 C-11.97872424 5.06164716 -17.1297397 4.55946155 -24 6 C-29.24254698 8.11718243 -32.87452226 10.52394898 -35.25 15.75 C-35.4975 16.4925 -35.745 17.235 -36 18 C-41.75 16.125 -41.75 16.125 -44 15 C-43.77723437 9.54224196 -42.55196848 6.57982162 -38.81640625 2.57421875 C-28.74617736 -6.15331295 -11.13023869 -7.14328752 0 0 Z M-15.1875 28.25 C-16.10853516 28.35957031 -17.02957031 28.46914062 -17.97851562 28.58203125 C-23.81798357 29.36946837 -29.11437089 30.54629994 -34 34 C-36.31779699 36.87577027 -36.31779699 36.87577027 -36 40.4375 C-35.29178606 44.12857644 -35.29178606 44.12857644 -32.5 46.375 C-26.62504571 49.10265735 -21.57181121 49.71907317 -15.3125 47.875 C-9.66224944 45.68589769 -6.13368122 43.0406262 -3.125 37.625 C-1.95945901 33.86936793 -1.76080486 30.90685396 -2 27 C-6.44832352 27 -10.78278158 27.66431434 -15.1875 28.25 Z " fill="#000000" transform="translate(645,139)"/>
<path d="M0 0 C0 6.27 0 12.54 0 19 C6.27 19 12.54 19 19 19 C19 22.96 19 26.92 19 31 C12.73 31 6.46 31 0 31 C0.07400967 35.21855131 0.1568302 39.43498328 0.26245117 43.65258789 C0.29569001 45.08704628 0.32372535 46.52163513 0.34643555 47.95629883 C0.38000271 50.01960807 0.43231413 52.08172303 0.48828125 54.14453125 C0.51446533 55.38565674 0.54064941 56.62678223 0.56762695 57.90551758 C0.74931453 60.96569329 0.74931453 60.96569329 2.37573242 62.9050293 C4.71845634 64.48433439 6.23842057 64.41423691 9 64 C11.54656011 62.11365918 12.7175023 59.86095641 14 57 C17.79951706 58.49266742 19.8354862 60.55281135 22 64 C22.10383081 68.04940149 20.18306451 70.68724071 17.49609375 73.640625 C12.35508817 78.31182589 6.60415074 78.5394499 -0.05859375 78.34765625 C-6.02388052 77.64259579 -9.66655591 75.64116196 -13.4375 71 C-16.00013842 66.07973424 -16.13804654 61.877873 -16.09765625 56.390625 C-16.0962413 55.66381531 -16.09482635 54.93700562 -16.09336853 54.18817139 C-16.08778792 51.87540506 -16.07523904 49.56273688 -16.0625 47.25 C-16.05748249 45.67838682 -16.05292002 44.10677211 -16.04882812 42.53515625 C-16.03782485 38.69006657 -16.02057361 34.8450499 -16 31 C-19.3 31 -22.6 31 -26 31 C-26 27.04 -26 23.08 -26 19 C-22.7 19 -19.4 19 -16 19 C-16 13.72 -16 8.44 -16 3 C-3.375 0 -3.375 0 0 0 Z " fill="#000000" transform="translate(866,11)"/>
<path d="M0 0 C5.88429262 5.12308023 9.49271063 11.33248452 11 19 C11 22.63 11 26.26 11 30 C-4.51 30 -20.02 30 -36 30 C-31.77378942 39.85035293 -31.77378942 39.85035293 -23.875 45.8125 C-18.09778007 47.98052397 -11.98613675 48.04081115 -6.17578125 46.015625 C-1.72579271 43.9108129 1.23294074 42.15058888 4 38 C9.53846154 38.61538462 9.53846154 38.61538462 11.875 40.5625 C12.24625 41.036875 12.6175 41.51125 13 42 C8.82243263 49.31074289 2.68852142 54.1860231 -5.45703125 56.52734375 C-15.75383811 58.44118957 -25.41993888 57.24048384 -34.28515625 51.52734375 C-40.45436107 46.64963601 -43.54850343 40.35448971 -46 33 C-46.82130594 22.76733585 -46.08120439 13.08091366 -39.75 4.625 C-29.24082277 -5.40648735 -12.48483374 -9.27598878 0 0 Z M-32.7734375 11.890625 C-34.49819997 14.65788176 -34.49819997 14.65788176 -36 21 C-23.79 21 -11.58 21 1 21 C-0.90115433 12.78092993 -0.90115433 12.78092993 -6 7 C-15.82636864 1.63095322 -25.59138039 3.46474794 -32.7734375 11.890625 Z " fill="#000000" transform="translate(918,246)"/>
<path d="M0 0 C8.77202175 4.62524783 12.97090041 10.62973106 15.921875 19.859375 C16.66511342 24.11610413 16.4375 28.49137211 16.4375 32.8125 C0.9275 32.8125 -14.5825 32.8125 -30.5625 32.8125 C-26.73877341 43.34686628 -26.73877341 43.34686628 -18.33984375 48.84375 C-11.78227597 51.25477334 -6.15959702 51.06196886 0.4375 48.8125 C4.30501372 46.76784669 6.98541778 44.49062333 9.4375 40.8125 C12.78123475 41.36978913 15.47062999 42.16423889 18.4375 43.8125 C15.9051326 50.30169147 11.46747102 54.57275094 5.44140625 57.921875 C-3.08193122 61.33765486 -14.89372086 61.47733177 -23.4375 58.046875 C-31.59131623 53.31046704 -37.26409779 47.00681376 -40.1328125 38.02734375 C-42.25011248 27.11362476 -40.52687806 17.52144749 -34.9375 8.0625 C-25.5953595 -0.7879489 -12.40286732 -4.2710263 0 0 Z M-26.05859375 13.4609375 C-28.86597375 17.10337388 -29.61354343 19.06771717 -30.5625 23.8125 C-18.3525 23.8125 -6.1425 23.8125 6.4375 23.8125 C4.43104002 16.06237236 4.43104002 16.06237236 -0.125 11.3125 C-1.02412109 10.61640625 -1.02412109 10.61640625 -1.94140625 9.90625 C-9.45194425 4.83889906 -20.18078735 6.98460774 -26.05859375 13.4609375 Z " fill="#000000" transform="translate(1057.5625,136.1875)"/>
<path d="M0 0 C6.71382565 4.95034424 10.40075637 11.34635858 12.08203125 19.53515625 C12.08203125 23.16515625 12.08203125 26.79515625 12.08203125 30.53515625 C-3.42796875 30.53515625 -18.93796875 30.53515625 -34.91796875 30.53515625 C-30.65704157 41.18064802 -30.65704157 41.18064802 -22.91796875 46.53515625 C-15.34255046 48.89275088 -9.15110982 48.97469186 -1.91796875 45.53515625 C1.00880103 43.63156615 3.48965256 41.71991363 5.08203125 38.53515625 C8.425766 39.09244538 11.11516124 39.88689514 14.08203125 41.53515625 C11.96481342 48.27175843 7.03787893 52.08076459 1.08203125 55.53515625 C-8.50618025 58.76206941 -19.41921418 59.27947529 -28.70703125 54.8515625 C-36.91585657 49.96397569 -41.67289385 43.73090913 -44.52734375 34.58203125 C-46.37381792 24.90650658 -44.8965725 15.39473356 -39.33984375 7.2109375 C-29.8389836 -4.36556102 -13.15427522 -7.83148392 0 0 Z M-29.91796875 10.53515625 C-33.37748893 15.68874043 -33.37748893 15.68874043 -34.91796875 21.53515625 C-22.70796875 21.53515625 -10.49796875 21.53515625 2.08203125 21.53515625 C0.91409908 14.52756325 -0.84247927 10.86052634 -6.48046875 6.59765625 C-14.69460543 4.05874128 -23.6699275 3.98409222 -29.91796875 10.53515625 Z " fill="#000000" transform="translate(900.91796875,138.46484375)"/>
<path d="M0 0 C6.96878517 4.98139088 9.97274022 11.89096088 12 20 C12 23.3 12 26.6 12 30 C-3.51 30 -19.02 30 -35 30 C-31.35431045 39.11422388 -29.49176061 43.37350579 -21.125 47.375 C-14.15510051 48.7689799 -7.23488631 48.79060174 -1 45 C1.29449732 42.79845673 3.07306241 40.55319231 5 38 C7.97 38.99 10.94 39.98 14 41 C12.04492464 47.04296021 8.76241388 51.30372921 3.1875 54.25 C-6.63062748 58.66264156 -15.95045414 59.20024904 -26.2890625 56.1015625 C-34.01281421 52.96309279 -39.43611251 47.45720996 -43 40 C-46.37461375 31.96520536 -46.37079535 21.72604233 -43.375 13.5625 C-39.28024645 4.8895845 -33.87601745 0.54454822 -25 -3 C-16.38821309 -5.61518481 -7.88442066 -4.08732237 0 0 Z M-30.875 11.8125 C-33.49764162 15.39565286 -33.49764162 15.39565286 -35 22 C-22.79 22 -10.58 22 2 22 C0.07136206 13.80008969 0.07136206 13.80008969 -5 8 C-14.22115748 2.7804769 -23.70277293 3.96721936 -30.875 11.8125 Z " fill="#000000" transform="translate(827,354)"/>
<path d="M0 0 C3.89382737 3.44715391 5.62563771 6.75892792 6 12 C2.62902617 13.49821059 0.79557881 14 -3 14 C-3.37125 13.071875 -3.7425 12.14375 -4.125 11.1875 C-6.40831757 7.30586012 -7.75166963 6.41611012 -12 5 C-16.80285928 4.30281075 -20.09294372 4.56266929 -24.5 6.6875 C-27.12200879 8.78964283 -27.12200879 8.78964283 -28.0625 11.5625 C-28.24388939 14.01367617 -28.24388939 14.01367617 -26.76171875 15.5625 C-24.7544139 17.20038954 -23.24306498 17.75487506 -20.75 18.4375 C-19.87214844 18.685 -18.99429688 18.9325 -18.08984375 19.1875 C-15.81504925 19.78567605 -13.53566525 20.36646542 -11.25390625 20.9375 C3.96442616 24.76858269 3.96442616 24.76858269 8.9375 30.0625 C10.61481437 34.6997809 10.64422 39.13256001 10 44 C7.11712499 49.87252318 2.98918573 53.4014216 -3.0625 55.75 C-11.84133331 58.40406588 -21.68606173 57.96833356 -30 54 C-34.99836169 50.62802175 -39.09002076 46.85726968 -41 41 C-40.6875 38.125 -40.6875 38.125 -40 36 C-37.36 35.67 -34.72 35.34 -32 35 C-31.52820313 35.81404297 -31.52820313 35.81404297 -31.046875 36.64453125 C-28.00617461 41.72762979 -25.79752858 45.06749047 -20 47 C-13.51554951 47.48656771 -7.50902115 47.9143045 -2 44 C0.26489372 41.18467943 0.26489372 41.18467943 0.0625 38 C-0.71427783 34.73078126 -0.71427783 34.73078126 -3.91015625 33.4609375 C-9.48457262 31.27187779 -15.40846247 30.24593116 -21.26171875 29.0703125 C-27.30161339 27.74554485 -31.25822038 26.00936093 -36 22 C-38.48649628 17.99998425 -38.56258966 13.60053158 -38 9 C-36.15398535 3.57054515 -32.79486072 0.01311287 -28 -3 C-19.04069879 -6.70205088 -7.89414797 -5.63867712 0 0 Z " fill="#000000" transform="translate(626,246)"/>
<path d="M0 0 C8.4580871 4.22904355 11.8617154 11.19955217 14.875 19.75 C17.93786113 27.91118208 21.28604371 34.34189213 27 41 C27.49757813 41.58652344 27.99515625 42.17304688 28.5078125 42.77734375 C28.93835938 43.28394531 29.36890625 43.79054688 29.8125 44.3125 C32 47 32 47 33.5 50.125 C36.67624258 56.21279828 43.80946538 59.57336544 49.47265625 63.20117188 C53.45704295 65.80510945 56.64030694 68.60187908 60 72 C61.87990494 73.30463348 63.79721267 74.55721639 65.75 75.75 C70.94444444 78.94444444 70.94444444 78.94444444 72 80 C72.08651611 81.41570123 72.10704904 82.835595 72.09765625 84.25390625 C72.09515869 85.0229126 72.09266113 85.79191895 72.09008789 86.58422852 C72.08098389 87.56705811 72.07187988 88.5498877 72.0625 89.5625 C72.041875 92.676875 72.02125 95.79125 72 99 C63.09 99 54.18 99 45 99 C41.08774407 90.12218847 37.77719402 82.02848636 36 72.5 C34.57966876 65.11553103 32.32612272 60.44792594 27 55 C23.0204006 50.52456055 19.96558546 45.91953418 17.0625 40.6875 C16.62719971 39.90858398 16.19189941 39.12966797 15.7434082 38.32714844 C12.48236443 32.30806524 10.01802728 26.21725447 8.06469727 19.65893555 C6.97804486 16.15069915 5.79129542 13.52059787 3.3828125 10.7890625 C0.13042302 6.98216727 0.25133274 4.85909964 0 0 Z " fill="#4F17A8" transform="translate(334,313)"/>
<path d="M0 0 C1.2684375 -0.01675781 2.536875 -0.03351563 3.84375 -0.05078125 C9.30097942 0.49144347 13.22654989 2.41428352 16.75 6.625 C17.22953125 7.17800781 17.7090625 7.73101562 18.203125 8.30078125 C21.88121553 14.00625301 21.7695136 19.76623132 21.6953125 26.3046875 C21.6924826 27.25062775 21.68965271 28.19656799 21.68673706 29.1711731 C21.67558932 32.17674694 21.65049465 35.18201702 21.625 38.1875 C21.61496321 40.23176651 21.60583859 42.27603772 21.59765625 44.3203125 C21.57566767 49.31782444 21.54117509 54.3151108 21.5 59.3125 C18.2 59.3125 14.9 59.3125 11.5 59.3125 C11.48541748 58.10190918 11.47083496 56.89131836 11.45581055 55.64404297 C11.39768315 51.13740019 11.3204511 46.63124951 11.23754883 42.125 C11.20436735 40.17749032 11.17631443 38.22988603 11.15356445 36.28222656 C11.11989366 33.47680485 11.06757173 30.67224472 11.01171875 27.8671875 C11.00532883 27.00133026 10.9989389 26.13547302 10.99235535 25.24337769 C10.87117576 20.22091368 10.3136378 16.64653513 7.5 12.3125 C3.10143524 9.24373389 -1.24126404 8.42619619 -6.5 9.3125 C-11.79234065 11.10227338 -15.43875192 13.536953 -18.5 18.3125 C-19.78774446 22.17573338 -19.73382793 25.88740537 -19.81640625 29.91796875 C-19.83718735 30.75717361 -19.85796844 31.59637848 -19.87937927 32.46101379 C-19.94474018 35.14059294 -20.00369714 37.82026969 -20.0625 40.5 C-20.10569802 42.31706737 -20.14931273 44.13412488 -20.19335938 45.95117188 C-20.3004078 50.40484799 -20.40171319 54.85862226 -20.5 59.3125 C-23.8 59.3125 -27.1 59.3125 -30.5 59.3125 C-30.5 40.5025 -30.5 21.6925 -30.5 2.3125 C-27.53 2.3125 -24.56 2.3125 -21.5 2.3125 C-21.17 4.2925 -20.84 6.2725 -20.5 8.3125 C-20.06429687 7.90257812 -19.62859375 7.49265625 -19.1796875 7.0703125 C-18.58414063 6.53148437 -17.98859375 5.99265625 -17.375 5.4375 C-16.79492188 4.90382812 -16.21484375 4.37015625 -15.6171875 3.8203125 C-10.76219776 0.36269988 -5.82693489 0.01776505 0 0 Z " fill="#000000" transform="translate(699.5,134.6875)"/>
<path d="M0 0 C3.3 0 6.6 0 10 0 C10.01458252 1.21582764 10.02916504 2.43165527 10.04418945 3.68432617 C10.10225098 8.20399078 10.1794836 12.72316127 10.26245117 17.24243164 C10.29566354 19.19677702 10.32370695 21.15121747 10.34643555 23.10571289 C10.38004933 25.91854282 10.43236854 28.73050447 10.48828125 31.54296875 C10.49467117 32.41398727 10.5010611 33.2850058 10.50764465 34.18241882 C10.64696787 39.95740325 11.5660772 43.47593191 15.6875 47.75 C19.7101045 49.92438081 23.6870993 50.47706239 28.12109375 49.5625 C33.41270614 47.80196355 36.92139817 45.03492372 40.10693359 40.38378906 C41.46302874 36.76407528 41.35964461 33.11542652 41.4140625 29.296875 C41.43342865 28.45908508 41.4527948 27.62129517 41.4727478 26.75811768 C41.53240724 24.08884787 41.57887413 21.41953461 41.625 18.75 C41.66319236 16.93748146 41.70224482 15.12498082 41.7421875 13.3125 C41.83809752 8.87514585 41.9221788 4.43770675 42 0 C45.3 0 48.6 0 52 0 C52 18.81 52 37.62 52 57 C49.03 57 46.06 57 43 57 C42.505 54.03 42.505 54.03 42 51 C41.50371094 51.40992188 41.00742187 51.81984375 40.49609375 52.2421875 C32.78208378 58.36070015 25.75921088 59.87186034 16 59 C10.32010752 57.9264808 6.93866903 55.46436032 3.2265625 51.109375 C-0.27833839 45.08183844 -0.27454075 38.90284464 -0.1953125 32.12890625 C-0.1924826 31.206577 -0.18965271 30.28424774 -0.18673706 29.33396912 C-0.17560974 26.41000987 -0.15051912 23.48636549 -0.125 20.5625 C-0.11496057 18.57096799 -0.1058364 16.57943114 -0.09765625 14.58789062 C-0.07569483 9.7251405 -0.04121673 4.8626235 0 0 Z " fill="#000000" transform="translate(762,244)"/>
<path d="M0 0 C2.97 0 5.94 0 9 0 C9.01458252 1.13429443 9.02916504 2.26858887 9.04418945 3.43725586 C9.1025494 7.68121475 9.17977728 11.9246638 9.26245117 16.16821289 C9.29552431 17.99820628 9.32360999 19.82829737 9.34643555 21.65844727 C9.38030807 24.30266613 9.43263641 26.94600379 9.48828125 29.58984375 C9.49467117 30.39646957 9.5010611 31.2030954 9.50764465 32.03416443 C9.65024166 37.65421308 10.52474243 42.89666969 13 48 C17.67361912 51.07167979 23.59793892 50.50842928 29 50 C34.51234588 48.09573506 37.45529101 45.03337965 40.08349609 39.87231445 C41.2990972 36.06263223 41.35567006 32.3787527 41.4140625 28.41796875 C41.43342865 27.60378983 41.4527948 26.7896109 41.4727478 25.95075989 C41.53228752 23.36311148 41.57882583 20.77541797 41.625 18.1875 C41.6632034 16.42771551 41.7022565 14.66794926 41.7421875 12.90820312 C41.83796782 8.60561766 41.92209285 4.3029447 42 0 C45.3 0 48.6 0 52 0 C52 19.14 52 38.28 52 58 C49.03 58 46.06 58 43 58 C42.34 56.02 41.68 54.04 41 52 C40.195625 52.763125 39.39125 53.52625 38.5625 54.3125 C33.01346123 58.89762123 26.39252616 60.588461 19.26171875 60.27734375 C12.24577741 59.41701243 7.65289599 57.48139158 3.19140625 51.9140625 C-0.34864338 46.22676965 -0.26558492 41.19319129 -0.1953125 34.66796875 C-0.1924826 33.67622147 -0.18965271 32.68447418 -0.18673706 31.66267395 C-0.17556804 28.50415841 -0.15046927 25.34592943 -0.125 22.1875 C-0.11496597 20.04232181 -0.10584086 17.89713917 -0.09765625 15.75195312 C-0.07563939 10.50119216 -0.0411319 5.25064462 0 0 Z " fill="#000000" transform="translate(897,352)"/>
<path d="M0 0 C3.3 0 6.6 0 10 0 C10.01401855 1.80803101 10.01401855 1.80803101 10.02832031 3.65258789 C10.06834516 8.14628364 10.13413849 12.63930375 10.20751953 17.13256836 C10.23565685 19.07323494 10.25690726 21.01401457 10.27099609 22.95483398 C10.29252618 25.75302712 10.33922718 28.54987129 10.390625 31.34765625 C10.39185364 32.2083522 10.39308228 33.06904816 10.39434814 33.95582581 C10.53397691 39.76457499 11.66201075 43.21455715 15 48 C19.32194531 51.17118345 24.89593434 50.69088182 30 50 C35.10833806 47.98003626 38.76960492 45.1167887 41 40 C42.17237148 35.93924309 42.22487325 31.93413733 42.31640625 27.734375 C42.33718735 26.94097717 42.35796844 26.14757935 42.37937927 25.33013916 C42.44459973 22.80351156 42.50363144 20.27678279 42.5625 17.75 C42.6057114 16.03384384 42.64932653 14.31769778 42.69335938 12.6015625 C42.80025283 8.40114454 42.90159729 4.20062511 43 0 C45.97 0 48.94 0 52 0 C52 19.14 52 38.28 52 58 C49.36 58 46.72 58 44 58 C43.34 56.02 42.68 54.04 42 52 C41.5153125 52.40992188 41.030625 52.81984375 40.53125 53.2421875 C33.25033332 59.09492437 26.32522788 60.99796298 17 60 C10.99458242 58.87258889 7.48917333 55.98108874 3.4453125 51.5234375 C-0.23643048 45.09531326 -0.28539988 37.60159475 -0.1953125 30.37109375 C-0.1924826 29.49598648 -0.18965271 28.62087921 -0.18673706 27.71925354 C-0.17565394 24.95852245 -0.15057257 22.19813095 -0.125 19.4375 C-0.11495482 17.55143702 -0.10583168 15.66536889 -0.09765625 13.77929688 C-0.07575368 9.18606957 -0.04130764 4.59309211 0 0 Z " fill="#000000" transform="translate(575,352)"/>
<path d="M0 0 C4.95 0 9.9 0 15 0 C15.09058365 8.98868482 15.16387822 17.97706353 15.20724869 26.9661026 C15.22807062 31.14066101 15.25628851 35.31488933 15.30175781 39.48925781 C15.34540966 43.52228513 15.36917763 47.55499614 15.37950897 51.58824158 C15.38686585 53.12235997 15.40123192 54.65646222 15.42292023 56.19044495 C15.62674754 71.21242039 15.62674754 71.21242039 11 78 C5.36710742 83.12081144 -1.22527523 82.43093217 -8.453125 82.23828125 C-12 82 -12 82 -15 81 C-14.01 75.06 -14.01 75.06 -13 69 C-10.02148438 69.09765625 -10.02148438 69.09765625 -7.04296875 69.1953125 C-4.68640281 69.13254462 -4.68640281 69.13254462 -2 67 C-0.71381505 63.69207716 -0.84387594 60.27685258 -0.79467773 56.76269531 C-0.7647599 54.87118744 -0.7647599 54.87118744 -0.73423767 52.94146729 C-0.71725599 51.57035443 -0.70037709 50.1992403 -0.68359375 48.828125 C-0.66301165 47.42136033 -0.64201485 46.01460167 -0.62062073 44.60784912 C-0.56552965 40.91226073 -0.51606345 37.21661774 -0.46777344 33.52093506 C-0.41746351 29.74698041 -0.36182707 25.97310468 -0.30664062 22.19921875 C-0.19921769 14.79954425 -0.09823027 7.39980329 0 0 Z " fill="#000000" transform="translate(694,30)"/>
<path d="M0 0 C5.77691128 7.19105102 6.14925458 13.74937164 6.09765625 22.67578125 C6.0962413 23.6009404 6.09482635 24.52609955 6.09336853 25.47929382 C6.08778715 28.42372927 6.07523805 31.36808767 6.0625 34.3125 C6.05748259 36.31314994 6.05292011 38.31380108 6.04882812 40.31445312 C6.03782381 45.20966494 6.02057198 50.10481942 6 55 C2.7 55 -0.6 55 -4 55 C-4.01458252 53.78940918 -4.02916504 52.57881836 -4.04418945 51.33154297 C-4.10231685 46.82490019 -4.1795489 42.31874951 -4.26245117 37.8125 C-4.29563265 35.86499032 -4.32368557 33.91738603 -4.34643555 31.96972656 C-4.38010634 29.16430485 -4.43242827 26.35974472 -4.48828125 23.5546875 C-4.49467117 22.68883026 -4.5010611 21.82297302 -4.50764465 20.93087769 C-4.62918233 15.89357235 -5.22952848 12.37193198 -8 8 C-11.79514792 4.54986553 -15.65920413 4.54387374 -20.5703125 4.71875 C-25.57128233 5.2976404 -28.24967534 7.24967534 -31.75 10.75 C-35.70887196 16.46837061 -36.30291956 22.31293468 -36.4140625 29.12109375 C-36.43342865 29.86585464 -36.4527948 30.61061554 -36.4727478 31.37794495 C-36.53200156 33.73101749 -36.57870914 36.08414043 -36.625 38.4375 C-36.66322985 40.04363983 -36.70228442 41.64976025 -36.7421875 43.25585938 C-36.8376575 47.17041325 -36.92188543 51.08506291 -37 55 C-39.97 55 -42.94 55 -46 55 C-46 36.19 -46 17.38 -46 -2 C-43.03 -2 -40.06 -2 -37 -2 C-36.67 -0.35 -36.34 1.3 -36 3 C-35.18208984 2.38511719 -35.18208984 2.38511719 -34.34765625 1.7578125 C-24.06116302 -5.59219463 -10.69152419 -8.33938887 0 0 Z " fill="#000000" transform="translate(573,246)"/>
<path d="M0 0 C6.35304932 3.90123285 8.6278893 9.32091844 10.375 16.3125 C10.73629891 19.60693398 10.72825522 22.84922328 10.66796875 26.16015625 C10.66372391 27.05745956 10.65947906 27.95476288 10.65510559 28.8792572 C10.63847363 31.71149243 10.60085197 34.54298424 10.5625 37.375 C10.54743309 39.30923443 10.53374822 41.24348014 10.52148438 43.17773438 C10.48862112 47.88960411 10.43694841 52.60092655 10.375 57.3125 C7.075 57.3125 3.775 57.3125 0.375 57.3125 C0.36041748 56.13220215 0.34583496 54.9519043 0.33081055 53.73583984 C0.27267303 49.34100625 0.19544119 44.94667674 0.11254883 40.55224609 C0.07937207 38.65324101 0.05131769 36.75413904 0.02856445 34.85498047 C-0.00511518 32.11904765 -0.0574372 29.38399689 -0.11328125 26.6484375 C-0.11967117 25.80445404 -0.1260611 24.96047058 -0.13264465 24.09091187 C-0.25576745 19.11244093 -0.87475344 15.62440724 -3.625 11.3125 C-7.39660766 7.97945137 -10.43294188 6.64210788 -15.5390625 6.92578125 C-20.56511421 7.85757735 -24.41316845 10.10066845 -28 13.6875 C-31.34858433 19.09675161 -31.94079413 24.30517911 -32.0390625 30.5546875 C-32.05842865 31.32305939 -32.0777948 32.09143127 -32.0977478 32.88308716 C-32.15714117 35.31778138 -32.20376628 37.75252393 -32.25 40.1875 C-32.28821693 41.84637386 -32.32727079 43.50522867 -32.3671875 45.1640625 C-32.46280907 49.21338542 -32.54698701 53.26280113 -32.625 57.3125 C-35.595 57.3125 -38.565 57.3125 -41.625 57.3125 C-41.625 38.5025 -41.625 19.6925 -41.625 0.3125 C-38.655 0.3125 -35.685 0.3125 -32.625 0.3125 C-32.295 2.2925 -31.965 4.2725 -31.625 6.3125 C-31.18929688 5.90257812 -30.75359375 5.49265625 -30.3046875 5.0703125 C-29.70914062 4.53148437 -29.11359375 3.99265625 -28.5 3.4375 C-27.91992188 2.90382812 -27.33984375 2.37015625 -26.7421875 1.8203125 C-19.59190568 -3.27195463 -7.87695355 -3.657157 0 0 Z " fill="#000000" transform="translate(1124.625,136.6875)"/>
<path d="M0 0 C0 6.27 0 12.54 0 19 C8.25 19 16.5 19 25 19 C25 21.64 25 24.28 25 27 C16.75 27 8.5 27 0 27 C0.096999 32.05415853 0.199767 37.10750904 0.31738281 42.16113281 C0.35563327 43.87981011 0.39049303 45.59856638 0.421875 47.31738281 C0.46761128 49.7900004 0.52559084 52.26207613 0.5859375 54.734375 C0.59748871 55.50118591 0.60903992 56.26799683 0.62094116 57.05804443 C0.72131685 62.36224818 0.72131685 62.36224818 3 67 C7.08729406 68.84328948 9.30607069 69.16466119 13.6875 68.125 C18.10204955 65.29302482 19.03258413 62.80049473 21 58 C23.64 58.99 26.28 59.98 29 61 C27.18142644 68.06034442 25.22289835 72.04363144 19 76 C13.00196213 78.93237407 6.03771982 78.99310071 -0.25 76.9375 C-5.01999363 73.57682267 -8.816497 69.82553765 -10 64 C-10.08363974 61.16308375 -10.11621679 58.35182011 -10.09765625 55.515625 C-10.0962413 54.70003113 -10.09482635 53.88443726 -10.09336853 53.04412842 C-10.08778303 50.44604788 -10.07523321 47.84805437 -10.0625 45.25 C-10.05748312 43.48567833 -10.05292054 41.72135531 -10.04882812 39.95703125 C-10.03781835 35.63798744 -10.02056369 31.31900846 -10 27 C-13.96 27 -17.92 27 -22 27 C-22 24.36 -22 21.72 -22 19 C-18.04 19 -14.08 19 -10 19 C-10 13.39 -10 7.78 -10 2 C-3 0 -3 0 0 0 Z " fill="#000000" transform="translate(729,225)"/>
<path d="M0 0 C3.9765507 3.2948563 6.75995714 6.81609999 8.1875 11.8125 C8.26396165 14.1445802 8.27893299 16.48095878 8.1875 18.8125 C-0.24107143 22.09821429 -0.24107143 22.09821429 -4.8125 22.8125 C-4.97105469 22.18601562 -5.12960937 21.55953125 -5.29296875 20.9140625 C-6.6306457 15.7603252 -6.6306457 15.7603252 -10.25 12.125 C-13.27969227 11.75552533 -14.27240049 12.19694191 -16.8125 13.8125 C-20.95693338 22.30052717 -20.37085705 31.62780717 -20.5 40.875 C-20.53322508 42.52020864 -20.56771941 44.16539217 -20.60351562 45.81054688 C-20.69018 49.81121646 -20.75074283 53.81106127 -20.8125 57.8125 C-25.7625 57.8125 -30.7125 57.8125 -35.8125 57.8125 C-35.8125 39.0025 -35.8125 20.1925 -35.8125 0.8125 C-31.5225 0.8125 -27.2325 0.8125 -22.8125 0.8125 C-22.4825 2.4625 -22.1525 4.1125 -21.8125 5.8125 C-21.34199219 5.39097656 -20.87148438 4.96945313 -20.38671875 4.53515625 C-19.76410156 3.98730469 -19.14148438 3.43945312 -18.5 2.875 C-17.88511719 2.32972656 -17.27023437 1.78445312 -16.63671875 1.22265625 C-11.99330663 -2.36679081 -5.22223113 -2.20494203 0 0 Z " fill="#000000" transform="translate(611.8125,29.1875)"/>
<path d="M0 0 C0 6.27 0 12.54 0 19 C8.25 19 16.5 19 25 19 C25 21.64 25 24.28 25 27 C16.75 27 8.5 27 0 27 C0.07419518 31.73314088 0.1571924 36.46445849 0.26245117 41.19677734 C0.29559363 42.8047524 0.32365854 44.41284081 0.34643555 46.02099609 C0.38017967 48.34000705 0.43250194 50.65798931 0.48828125 52.9765625 C0.49467117 53.68930328 0.5010611 54.40204407 0.50764465 55.13638306 C0.64312826 59.79245607 1.57342372 63.0280127 4 67 C6.48396509 68.97004128 7.75378487 69.00523862 10.9375 68.9375 C14.82369897 67.74784725 16.44161728 66.12691221 19 63 C20.319018 60.33466965 20.319018 60.33466965 21 58 C26.75 59.875 26.75 59.875 29 61 C28.521575 66.02346252 27.22014577 69.10192881 24 73 C17.65015638 77.55626592 11.65916433 78.81697753 4 78 C-1.33006128 76.32924825 -4.95235691 73.75432322 -8 69 C-9.3158809 65.0523573 -9.12300273 61.28910644 -9.09765625 57.17578125 C-9.0962413 56.31438034 -9.09482635 55.45297943 -9.09336853 54.56547546 C-9.0877714 51.81444831 -9.07521946 49.06350256 -9.0625 46.3125 C-9.05748463 44.4472668 -9.05292179 42.58203233 -9.04882812 40.71679688 C-9.03780292 36.14449989 -9.02054027 31.57226375 -9 27 C-13.29 27 -17.58 27 -22 27 C-22 24.36 -22 21.72 -22 19 C-17.71 19 -13.42 19 -9 19 C-9 13.39 -9 7.78 -9 2 C-3 0 -3 0 0 0 Z " fill="#000000" transform="translate(840,225)"/>
<path d="M0 0 C0 6.27 0 12.54 0 19 C8.25 19 16.5 19 25 19 C25 21.64 25 24.28 25 27 C16.75 27 8.5 27 0 27 C0.07411053 31.8938503 0.15703287 36.7859091 0.26245117 41.67895508 C0.29563655 43.34227108 0.32368834 45.00569796 0.34643555 46.66918945 C0.38009999 49.06509499 0.4324194 51.45999035 0.48828125 53.85546875 C0.49467117 54.5952446 0.5010611 55.33502045 0.50764465 56.09721375 C0.63363333 60.5548924 1.28526232 63.43441818 4 67 C6.49914688 68.89590453 7.77963304 69.00468866 10.9375 68.9375 C14.82369897 67.74784725 16.44161728 66.12691221 19 63 C20.319018 60.33466965 20.319018 60.33466965 21 58 C26.75 59.875 26.75 59.875 29 61 C28.60008916 66.46544813 26.86466954 70.19067179 23 74 C17.16249684 77.92621021 10.91693848 79.10270034 4 78 C-1.33269618 76.28362447 -4.93638711 73.77923611 -8 69 C-9.3158809 65.0523573 -9.12300273 61.28910644 -9.09765625 57.17578125 C-9.0962413 56.31438034 -9.09482635 55.45297943 -9.09336853 54.56547546 C-9.0877714 51.81444831 -9.07521946 49.06350256 -9.0625 46.3125 C-9.05748463 44.4472668 -9.05292179 42.58203233 -9.04882812 40.71679688 C-9.03780292 36.14449989 -9.02054027 31.57226375 -9 27 C-13.29 27 -17.58 27 -22 27 C-22 24.36 -22 21.72 -22 19 C-17.71 19 -13.42 19 -9 19 C-9 13.39 -9 7.78 -9 2 C-3 0 -3 0 0 0 Z " fill="#000000" transform="translate(657,225)"/>
<path d="M0 0 C0 6.27 0 12.54 0 19 C8.25 19 16.5 19 25 19 C25 21.64 25 24.28 25 27 C16.75 27 8.5 27 0 27 C0.07411053 31.8938503 0.15703287 36.7859091 0.26245117 41.67895508 C0.29563655 43.34227108 0.32368834 45.00569796 0.34643555 46.66918945 C0.38009999 49.06509499 0.4324194 51.45999035 0.48828125 53.85546875 C0.49467117 54.5952446 0.5010611 55.33502045 0.50764465 56.09721375 C0.63357804 60.55293624 1.23555787 63.46668339 4 67 C7.36355241 69.24236827 9.05651936 69.27461402 12.99609375 68.6796875 C16.60639494 67.4551409 17.93236729 65.13277684 20 62 C20.33 61.01 20.66 60.02 21 59 C26.75 59.875 26.75 59.875 29 61 C28.77570339 66.49526683 27.52990001 69.48837145 23.71875 73.48828125 C18.27692916 78.27461004 12.80280651 78.49067002 5.8046875 78.28125 C0.58574227 77.75790173 -2.43112251 75.83986935 -5.8125 72 C-9.36311374 67.13058688 -9.1334039 62.97704986 -9.09765625 57.17578125 C-9.0962413 56.31438034 -9.09482635 55.45297943 -9.09336853 54.56547546 C-9.0877714 51.81444831 -9.07521946 49.06350256 -9.0625 46.3125 C-9.05748463 44.4472668 -9.05292179 42.58203233 -9.04882812 40.71679688 C-9.03780292 36.14449989 -9.02054027 31.57226375 -9 27 C-13.29 27 -17.58 27 -22 27 C-22 24.36 -22 21.72 -22 19 C-17.71 19 -13.42 19 -9 19 C-9 13.39 -9 7.78 -9 2 C-2 0 -2 0 0 0 Z " fill="#000000" transform="translate(1158,118)"/>
<path d="M0 0 C0.99 0 1.98 0 3 0 C3.13559675 2.56428515 3.23433188 5.12135216 3.3125 7.6875 C3.35439453 8.40873047 3.39628906 9.12996094 3.43945312 9.87304688 C3.53663003 14.12939546 3.4537803 15.48949716 0.5 18.8125 C-0.325 19.534375 -1.15 20.25625 -2 21 C-2.103125 22.093125 -2.20625 23.18625 -2.3125 24.3125 C-3.21669497 29.16227302 -5.49332333 30.90058395 -9.08984375 34.10546875 C-12.84898973 37.83386507 -13.23957169 41.1413751 -13.75 46.3125 C-14.52118795 51.80874429 -15.61909743 54.4532888 -19.5 58.296875 C-21.76978565 60.87402746 -22.62939335 63.76050731 -23.7890625 66.95703125 C-25.38418542 70.96542078 -27.30321576 74.77766235 -29.25 78.625 C-29.61593262 79.34872803 -29.98186523 80.07245605 -30.35888672 80.81811523 C-31.23610241 82.54701478 -32.11759563 84.27374291 -33 86 C-37.62 86 -42.24 86 -47 86 C-44.89515304 82.1141287 -42.85431059 78.8168719 -39.9375 75.5 C-36.55249429 71.19488052 -36.00394511 66.59838365 -35.18334961 61.34960938 C-34.53345928 57.61566003 -34.04694991 55.34495655 -31 53 C-27.4520426 50.26076818 -27.16145956 46.89511775 -26.5 42.6875 C-25.22061912 34.59660055 -22.18260796 28.47555439 -16 23 C-15.175 22.814375 -14.35 22.62875 -13.5 22.4375 C-10.83336599 21.25751778 -10.83336599 21.25751778 -10.1875 18.828125 C-9.72249628 17.04208797 -9.26434557 15.25425492 -8.8125 13.46484375 C-7.69207623 10.06586588 -5.62533831 8.36280448 -3 6 C-1.20679176 2.83354526 -1.20679176 2.83354526 0 0 Z " fill="#4F17A8" transform="translate(281,326)"/>
<path d="M0 0 C4.98087903 1.62339761 9.93885902 3.30757371 14.875 5.0625 C15.77992188 5.38347656 16.68484375 5.70445312 17.6171875 6.03515625 C20 7 20 7 23 9 C25.07905791 9.34510772 25.07905791 9.34510772 27.3125 9.4375 C31.44874089 9.80127363 34.35303555 10.9541419 38 13 C38.66 13 39.32 13 40 13 C40.226875 11.948125 40.45375 10.89625 40.6875 9.8125 C41.81159234 5.83369833 43.7961856 3.64314688 47 1 C47.66 1 48.32 1 49 1 C48.25 7.625 48.25 7.625 46 11 C45.33386665 13.27538323 45.33386665 13.27538323 44.875 15.6875 C44.70742188 16.49574219 44.53984375 17.30398437 44.3671875 18.13671875 C44.18542969 19.05904297 44.18542969 19.05904297 44 20 C40 20 40 20 37 18 C37.00523682 18.80743652 37.01047363 19.61487305 37.01586914 20.44677734 C37.03659929 24.08951038 37.04964749 27.73223102 37.0625 31.375 C37.07087891 32.64601563 37.07925781 33.91703125 37.08789062 35.2265625 C37.09111328 36.43828125 37.09433594 37.65 37.09765625 38.8984375 C37.10289307 40.01911621 37.10812988 41.13979492 37.11352539 42.29443359 C37 45 37 45 36 47 C31.87394596 45.30704175 31.1616538 43.28348652 29.32421875 39.2890625 C26.11541866 33.74228712 20.88551324 29.28873961 15.6875 25.625 C11.74285775 21.77209361 10.54944455 17.20431082 9 12 C8.34 12 7.68 12 7 12 C7.2165625 13.03447266 7.2165625 13.03447266 7.4375 14.08984375 C8.64207787 20.1880192 9.20368412 25.78763445 9 32 C7.68 31.67 6.36 31.34 5 31 C3.01900656 23.83470459 1.49499533 16.63677331 0.25 9.3125 C0.11037842 8.51021973 -0.02924316 7.70793945 -0.1730957 6.88134766 C-0.49501484 4.92796502 -0.75366048 2.96434531 -1 1 C-0.67 0.67 -0.34 0.34 0 0 Z " fill="#4F17A8" transform="translate(310,238)"/>
<path d="M0 0 C5.24561902 3.57655842 8.2735905 7.70092389 9.75 13.875 C9.75 15.195 9.75 16.515 9.75 17.875 C7.11 18.535 4.47 19.195 1.75 19.875 C1.50765625 19.33230469 1.2653125 18.78960937 1.015625 18.23046875 C-1.45399044 12.4618884 -1.45399044 12.4618884 -6.25 8.875 C-11.05145187 8.59521615 -14.2982435 9.16624516 -18.1875 12.0625 C-22.27667983 17.63865431 -22.5678483 23.10798302 -22.6640625 29.7734375 C-22.68342865 30.60839752 -22.7027948 31.44335754 -22.7227478 32.30361938 C-22.78219614 34.95231126 -22.82878894 37.60104743 -22.875 40.25 C-22.91321182 42.05340364 -22.95226539 43.85678966 -22.9921875 45.66015625 C-23.08786881 50.06495984 -23.17202711 54.4698488 -23.25 58.875 C-26.55 58.875 -29.85 58.875 -33.25 58.875 C-33.25 39.735 -33.25 20.595 -33.25 0.875 C-30.28 0.875 -27.31 0.875 -24.25 0.875 C-23.92 2.855 -23.59 4.835 -23.25 6.875 C-22.54875 6.111875 -21.8475 5.34875 -21.125 4.5625 C-14.74192003 -1.40429215 -8.22437512 -2.84689908 0 0 Z " fill="#000000" transform="translate(670.25,351.125)"/>
<path d="M0 0 C3.78108711 2.16169721 5.8009347 4.37548157 7.6875 8.375 C8.26151298 11.37262336 8.55206791 14.32777789 8.6875 17.375 C5.78149739 18.63164978 3.89145416 19.375 0.6875 19.375 C0.44515625 18.74851562 0.2028125 18.12203125 -0.046875 17.4765625 C-0.38203125 16.65929687 -0.7171875 15.84203125 -1.0625 15 C-1.54976562 13.78183594 -1.54976562 13.78183594 -2.046875 12.5390625 C-3.53367075 9.99682532 -4.57488669 9.36096035 -7.3125 8.375 C-11.17059076 7.87177077 -13.0063203 8.21890839 -16.5 10 C-20.92690564 13.73827587 -22.42781423 17.78039264 -23.3125 23.375 C-23.46025521 26.09555815 -23.56740704 28.79727854 -23.62890625 31.51953125 C-23.64968735 32.28931808 -23.67046844 33.05910492 -23.69187927 33.85221863 C-23.75696049 36.29722667 -23.81606591 38.74233683 -23.875 41.1875 C-23.91822468 42.85092177 -23.96184021 44.51433344 -24.00585938 46.17773438 C-24.11259907 50.24338648 -24.21398171 54.30914071 -24.3125 58.375 C-27.2825 58.375 -30.2525 58.375 -33.3125 58.375 C-33.3125 39.235 -33.3125 20.095 -33.3125 0.375 C-30.6725 0.375 -28.0325 0.375 -25.3125 0.375 C-24.9825 2.025 -24.6525 3.675 -24.3125 5.375 C-23.76980469 4.95347656 -23.22710938 4.53195312 -22.66796875 4.09765625 C-21.95253906 3.54980469 -21.23710938 3.00195312 -20.5 2.4375 C-19.79230469 1.89222656 -19.08460938 1.34695313 -18.35546875 0.78515625 C-12.89816747 -2.98173813 -5.88118054 -2.65424065 0 0 Z " fill="#000000" transform="translate(881.3125,351.625)"/>
<path d="M0 0 C4.46213657 1.49756638 6.28101361 5.00352212 8.625 8.8125 C9.01945312 9.42931641 9.41390625 10.04613281 9.8203125 10.68164062 C12.69216783 15.24653229 14.66154851 19.43791618 15.8125 24.75 C16.58760892 28.0426627 17.80195024 30.63946419 19.5 33.5625 C22.09295448 38.02603162 23.67545055 42.20704629 24.27734375 47.38671875 C25.06048546 53.41427011 26.85729933 57.944487 30 63.125 C35.98934121 73.0650694 36.66190388 81.40898546 36 93 C35.67 93.66 35.34 94.32 35 95 C33.02 95 31.04 95 29 95 C26.83431384 88.08905483 25.73396301 81.05851852 24.58789062 73.91796875 C23.74082528 68.97056716 22.94608879 65.17992084 20 61 C20 60.34 20 59.68 20 59 C19.4225 58.79375 18.845 58.5875 18.25 58.375 C15.04059094 56.41369446 13.82743622 54.28640771 12 51 C11.38189892 48.15969516 11.22591648 45.33521328 11.0625 42.4375 C10.23678024 32.53088178 7.25465387 24.34490432 2.75 15.5 C0.06898044 10.13796089 -0.11687027 5.96038398 0 0 Z " fill="#4F17A8" transform="translate(324,317)"/>
<path d="M0 0 C3.3 0 6.6 0 10 0 C10 26.4 10 52.8 10 80 C6.7 80 3.4 80 0 80 C0 53.6 0 27.2 0 0 Z " fill="#000000" transform="translate(506,221)"/>
<path d="M0 0 C-0.25351024 5.83073544 -2.18417744 9.36850424 -5.4296875 14.1796875 C-6.85815512 16.74524378 -7.45162188 18.66776564 -8.171875 21.46875 C-9.94079407 27.04124945 -13.42787928 28.9174542 -18.375 31.625 C-25.56119766 35.67183486 -30.60274785 39.23738179 -33.00390625 47.421875 C-33.18824219 48.52015625 -33.37257812 49.6184375 -33.5625 50.75 C-34.54233723 56.56144843 -34.54233723 56.56144843 -36.77734375 58.703125 C-38.35352037 59.6227922 -39.94521259 60.51609767 -41.546875 61.390625 C-44.343906 63.22561986 -45.50763933 64.91646396 -47.25 67.75 C-50.70578631 72.9298819 -54.68795101 76.73271121 -60 80 C-60.66 80 -61.32 80 -62 80 C-62.0810206 77.89646505 -62.13919907 75.79204048 -62.1875 73.6875 C-62.22230469 72.51574219 -62.25710937 71.34398437 -62.29296875 70.13671875 C-62 67 -62 67 -60.61328125 65.08203125 C-59 64 -59 64 -57 64 C-56.773125 63.4225 -56.54625 62.845 -56.3125 62.25 C-54.06804484 58.40236259 -50.60589327 56.37565383 -46.875 54.0625 C-42.28813534 50.77192318 -40.67695457 46.30381391 -38.4375 41.25 C-34.72700774 33.71770071 -29.18508533 29.06034365 -22.5 24.171875 C-19.4355547 21.50963814 -17.34079267 18.58489218 -15.0625 15.25 C-14.18648557 14.00240214 -13.3101847 12.75500535 -12.43359375 11.5078125 C-10.99912744 9.44656242 -9.57599842 7.37885119 -8.16015625 5.3046875 C-7.65355469 4.58539063 -7.14695312 3.86609375 -6.625 3.125 C-6.20476562 2.50882812 -5.78453125 1.89265625 -5.3515625 1.2578125 C-4 0 -4 0 0 0 Z " fill="#4F17A8" transform="translate(274,305)"/>
<path d="M0 0 C4.00898786 1.43649291 7.28926461 3.36731394 10.8125 5.75 C11.87210937 6.46285156 12.93171875 7.17570312 14.0234375 7.91015625 C16.42026848 9.59297065 18.67513922 11.33428958 20.9375 13.1875 C24.26089361 15.77390675 27.59678443 17.04633782 31.5625 18.4375 C39.11183057 21.18112245 43.40623246 24.91764241 47.4375 31.8125 C49.57311795 36.4381576 49.36850806 41.00466851 49 46 C43.7264338 44.49682601 39.35837079 42.1030858 34.6875 39.3125 C33.93275391 38.86189209 33.17800781 38.41128418 32.40039062 37.94702148 C18.6949456 29.65901132 5.00337615 17.67061968 0.3125 1.65234375 C0.209375 1.10707031 0.10625 0.56179688 0 0 Z " fill="#4F17A8" transform="translate(352,322)"/>
<path d="M0 0 C0.33 0 0.66 0 1 0 C0.01215319 26.53560918 0.01215319 26.53560918 -6.6875 32.9375 C-9.05651241 35.33113831 -9.94006934 36.39731704 -10.27734375 39.7890625 C-10.17108082 42.07235309 -10.04872562 44.35492701 -9.9140625 46.63671875 C-9.74202506 55.80102101 -12.86871911 65.15518431 -15 74 C-18.96 74 -22.92 74 -27 74 C-26.13421109 69.0413908 -25.28551752 65.18606348 -22.5625 60.9375 C-20.14551546 56.90218668 -19.32554149 53.02865665 -18.625 48.4375 C-17.5842908 41.83320729 -15.66399314 36.27867314 -12.83740234 30.23681641 C-9.96488471 24.08357333 -7.64398545 17.78727467 -5.39746094 11.3815918 C-3.94682845 7.31022487 -2.49433115 3.5766415 0 0 Z " fill="#4F17A8" transform="translate(291,338)"/>
<path d="M0 0 C2.97 0 5.94 0 9 0 C9 18.81 9 37.62 9 57 C6.03 57 3.06 57 0 57 C0 38.19 0 19.38 0 0 Z " fill="#000000" transform="translate(692,244)"/>
<path d="M0 0 C0.33 0.474375 0.66 0.94875 1 1.4375 C3.63872452 3.49900353 5.78399705 3.48649982 9.0625 3.69140625 C11 4 11 4 14 6 C14.66 5.67 15.32 5.34 16 5 C17.68690231 4.95509079 19.375447 4.96116137 21.0625 5 C22.70789986 5.03777102 24.35482156 5.04642479 26 5 C26.33 4.67 26.66 4.34 27 4 C28.97619447 3.87485072 30.95738173 3.8242724 32.9375 3.8125 C34.01902344 3.79832031 35.10054688 3.78414062 36.21484375 3.76953125 C39 4 39 4 41 6 C40.625 9.125 40.625 9.125 40 12 C41.32 12.33 42.64 12.66 44 13 C44.8125 14.6875 44.8125 14.6875 45 17 C42.05781632 20.46139257 38.62962087 23.27778435 35 26 C34.67 26 34.34 26 34 26 C33.75 20.375 33.75 20.375 36 17 C32.81031108 17.75584281 32.81031108 17.75584281 31 20.5625 C30.34 21.366875 29.68 22.17125 29 23 C28.01 23 27.02 23 26 23 C27.06381856 19.61512277 28.01190919 17.98865792 30.625 15.5 C33.26137166 13.22926315 33.26137166 13.22926315 33.3125 10.1875 C33.1578125 9.1046875 33.1578125 9.1046875 33 8 C30.89439669 7.76936488 30.89439669 7.76936488 29.5 9.4375 C29.005 9.953125 28.51 10.46875 28 11 C27.34 11.33 26.68 11.66 26 12 C26.66 12.99 27.32 13.98 28 15 C26.35 15 24.7 15 23 15 C22.34 13.35 21.68 11.7 21 10 C20.01 10.33 19.02 10.66 18 11 C12.76741598 11.38759882 10.39470586 10.65995355 6 8 C3.25760857 8.21329449 3.25760857 8.21329449 1 9 C1.33 11.64 1.66 14.28 2 17 C-1.63 16.01 -5.26 15.02 -9 14 C-9 12.35 -9 10.7 -9 9 C-7.04109119 7.60699818 -5.0360882 6.27754554 -3 5 C-1.13689678 2.39975951 -1.13689678 2.39975951 0 0 Z " fill="#4F17A8" transform="translate(221,235)"/>
<path d="M0 0 C3.28870485 2.72721866 3.89723897 4.28067282 4.5 8.5 C3.9231981 12.53761333 2.85349783 14.14650217 0 17 C-3.06429776 18.53214888 -5.6165642 18.22938548 -9 18 C-13.6 15.8 -13.6 15.8 -15 13 C-15.51968957 8.5868984 -15.85380637 5.13840849 -13.125 1.5 C-8.71156937 -1.6153628 -5.15576804 -1.31870444 0 0 Z " fill="#000000" transform="translate(707,4)"/>
<path d="M0 0 C2.8100346 1.79363911 4.50940468 3.01880935 6 6 C6.5811138 13.08958838 6.5811138 13.08958838 4.125 16.9375 C1.37722199 19.60446101 0.553254 19.95824498 -3.3125 20.25 C-7.24058469 19.98368917 -8.95647943 19.43481646 -12 17 C-14.56570589 13.57905881 -14.43708054 10.15226516 -14 6 C-10.26747896 0.27680107 -6.74763808 -0.96948823 0 0 Z M-8 4 C-5.69 4.33 -3.38 4.66 -1 5 C-0.08941469 8.07322544 0.08886184 10.80097361 0 14 C0.99 14 1.98 14 3 14 C3.9811923 10.87802451 4.15757314 9.39856735 2.9375 6.3125 C-0.43157655 2.29134411 -3.55229796 1.03486531 -8 4 Z M-10 5 C-11.82660197 9.12148343 -11.82660197 9.12148343 -11.125 13.375 C-10.75375 13.91125 -10.3825 14.4475 -10 15 C-9.67 15 -9.34 15 -9 15 C-9 11.7 -9 8.4 -9 5 C-9.33 5 -9.66 5 -10 5 Z M-6 7 C-6 7.66 -6 8.32 -6 9 C-5.01 9 -4.02 9 -3 9 C-3 8.34 -3 7.68 -3 7 C-3.99 7 -4.98 7 -6 7 Z M-6 12 C-6 13.32 -6 14.64 -6 16 C-6.99 16.495 -6.99 16.495 -8 17 C-5.64632287 17.6878236 -5.64632287 17.6878236 -3 18 C-2.01 17.34 -1.02 16.68 0 16 C-0.99 16 -1.98 16 -3 16 C-3 14.68 -3 13.36 -3 12 C-3.99 12 -4.98 12 -6 12 Z " fill="#000000" transform="translate(952,283)"/>
<path d="M0 0 C-0.62335603 2.01391949 -1.30028027 4.01132287 -2 6 C-2.33 7.0725 -2.66 8.145 -3 9.25 C-5.34230701 12.47067214 -6.16718229 12.58882509 -9.9375 13.375 C-13.04444943 13.85299222 -15.83625192 14 -19 14 C-18.67 11.36 -18.34 8.72 -18 6 C-16.88625 5.7525 -15.7725 5.505 -14.625 5.25 C-10.95791272 4.40634018 -10.95791272 4.40634018 -9.6875 1.9375 C-9.460625 1.298125 -9.23375 0.65875 -9 0 C-5.93109813 -1.53445094 -3.29905734 -0.54984289 0 0 Z " fill="#4F17A8" transform="translate(397,241)"/>
<path d="M0 0 C2 2 2 2 2.375 5.9375 C2.28635216 8.80551846 2.21085143 9.72167611 0.4375 12.0625 C-3.0507008 13.40411569 -5.42525344 12.92678615 -9 12 C-11.31332486 8.53001271 -11.33957563 7.07490752 -11 3 C-7.84482371 -1.73276443 -5.17523435 -1.21122506 0 0 Z " fill="#000000" transform="translate(701,221)"/>
<path d="M0 0 C1.32 0.99 2.64 1.98 4 3 C2.38750996 6.67822053 0.10253751 9.53024166 -2.4375 12.625 C-3.21996094 13.58664062 -4.00242187 14.54828125 -4.80859375 15.5390625 C-7 18 -7 18 -10 20 C-10.99 19.34 -11.98 18.68 -13 18 C-11.4805627 13.1396313 -8.67081346 9.93920644 -5.375 6.1875 C-4.859375 5.59001953 -4.34375 4.99253906 -3.8125 4.37695312 C-2.54753728 2.91287591 -1.27456166 1.45572845 0 0 Z " fill="#000000" transform="translate(932,323)"/>
</svg>
